%TF.GenerationSoftware,KiCad,Pcbnew,9.0.4*%
%TF.CreationDate,2026-03-04T09:29:07+01:00*%
%TF.ProjectId,solvro_logo_led,736f6c76-726f-45f6-9c6f-676f5f6c6564,rev?*%
%TF.SameCoordinates,Original*%
%TF.FileFunction,Legend,Bot*%
%TF.FilePolarity,Positive*%
%FSLAX46Y46*%
G04 Gerber Fmt 4.6, Leading zero omitted, Abs format (unit mm)*
G04 Created by KiCad (PCBNEW 9.0.4) date 2026-03-04 09:29:07*
%MOMM*%
%LPD*%
G01*
G04 APERTURE LIST*
%ADD10C,0.150000*%
%ADD11C,0.120000*%
G04 APERTURE END LIST*
D10*
X171475714Y-69931009D02*
X171332857Y-69978628D01*
X171332857Y-69978628D02*
X171285238Y-70026247D01*
X171285238Y-70026247D02*
X171237619Y-70121485D01*
X171237619Y-70121485D02*
X171237619Y-70264342D01*
X171237619Y-70264342D02*
X171285238Y-70359580D01*
X171285238Y-70359580D02*
X171332857Y-70407200D01*
X171332857Y-70407200D02*
X171428095Y-70454819D01*
X171428095Y-70454819D02*
X171809047Y-70454819D01*
X171809047Y-70454819D02*
X171809047Y-69454819D01*
X171809047Y-69454819D02*
X171475714Y-69454819D01*
X171475714Y-69454819D02*
X171380476Y-69502438D01*
X171380476Y-69502438D02*
X171332857Y-69550057D01*
X171332857Y-69550057D02*
X171285238Y-69645295D01*
X171285238Y-69645295D02*
X171285238Y-69740533D01*
X171285238Y-69740533D02*
X171332857Y-69835771D01*
X171332857Y-69835771D02*
X171380476Y-69883390D01*
X171380476Y-69883390D02*
X171475714Y-69931009D01*
X171475714Y-69931009D02*
X171809047Y-69931009D01*
X170951904Y-69454819D02*
X170380476Y-69454819D01*
X170666190Y-70454819D02*
X170666190Y-69454819D01*
X169523333Y-70454819D02*
X170094761Y-70454819D01*
X169809047Y-70454819D02*
X169809047Y-69454819D01*
X169809047Y-69454819D02*
X169904285Y-69597676D01*
X169904285Y-69597676D02*
X169999523Y-69692914D01*
X169999523Y-69692914D02*
X170094761Y-69740533D01*
X199992857Y-78237200D02*
X197707143Y-78237200D01*
X198850000Y-79380057D02*
X198850000Y-77094342D01*
D11*
%TO.C,BT1*%
X144080000Y-70840000D02*
X144080000Y-109060000D01*
X144080000Y-109060000D02*
X197300000Y-109060000D01*
X197300000Y-70840000D02*
X144080000Y-70840000D01*
X197300000Y-109060000D02*
X197300000Y-70840000D01*
%TD*%
M02*
