%TF.GenerationSoftware,KiCad,Pcbnew,9.0.4*%
%TF.CreationDate,2026-03-04T09:29:07+01:00*%
%TF.ProjectId,solvro_logo_led,736f6c76-726f-45f6-9c6f-676f5f6c6564,rev?*%
%TF.SameCoordinates,Original*%
%TF.FileFunction,Legend,Top*%
%TF.FilePolarity,Positive*%
%FSLAX46Y46*%
G04 Gerber Fmt 4.6, Leading zero omitted, Abs format (unit mm)*
G04 Created by KiCad (PCBNEW 9.0.4) date 2026-03-04 09:29:07*
%MOMM*%
%LPD*%
G01*
G04 APERTURE LIST*
%ADD10C,0.150000*%
%ADD11C,0.120000*%
G04 APERTURE END LIST*
D10*
X163904819Y-106456666D02*
X163428628Y-106789999D01*
X163904819Y-107028094D02*
X162904819Y-107028094D01*
X162904819Y-107028094D02*
X162904819Y-106647142D01*
X162904819Y-106647142D02*
X162952438Y-106551904D01*
X162952438Y-106551904D02*
X163000057Y-106504285D01*
X163000057Y-106504285D02*
X163095295Y-106456666D01*
X163095295Y-106456666D02*
X163238152Y-106456666D01*
X163238152Y-106456666D02*
X163333390Y-106504285D01*
X163333390Y-106504285D02*
X163381009Y-106551904D01*
X163381009Y-106551904D02*
X163428628Y-106647142D01*
X163428628Y-106647142D02*
X163428628Y-107028094D01*
X163238152Y-105599523D02*
X163904819Y-105599523D01*
X162857200Y-105837618D02*
X163571485Y-106075713D01*
X163571485Y-106075713D02*
X163571485Y-105456666D01*
X169879764Y-82592975D02*
X170586871Y-81885869D01*
X170586871Y-81885869D02*
X170755230Y-82054227D01*
X170755230Y-82054227D02*
X170822573Y-82188914D01*
X170822573Y-82188914D02*
X170822573Y-82323601D01*
X170822573Y-82323601D02*
X170788901Y-82424617D01*
X170788901Y-82424617D02*
X170687886Y-82592975D01*
X170687886Y-82592975D02*
X170586871Y-82693991D01*
X170586871Y-82693991D02*
X170418512Y-82795006D01*
X170418512Y-82795006D02*
X170317497Y-82828678D01*
X170317497Y-82828678D02*
X170182810Y-82828678D01*
X170182810Y-82828678D02*
X170048123Y-82761334D01*
X170048123Y-82761334D02*
X169879764Y-82592975D01*
X171192962Y-82626647D02*
X171260306Y-82626647D01*
X171260306Y-82626647D02*
X171361321Y-82660319D01*
X171361321Y-82660319D02*
X171529680Y-82828678D01*
X171529680Y-82828678D02*
X171563352Y-82929693D01*
X171563352Y-82929693D02*
X171563352Y-82997036D01*
X171563352Y-82997036D02*
X171529680Y-83098052D01*
X171529680Y-83098052D02*
X171462336Y-83165395D01*
X171462336Y-83165395D02*
X171327649Y-83232739D01*
X171327649Y-83232739D02*
X170519527Y-83232739D01*
X170519527Y-83232739D02*
X170957260Y-83670471D01*
X171630695Y-84343907D02*
X171226634Y-83939846D01*
X171428665Y-84141876D02*
X172135772Y-83434769D01*
X172135772Y-83434769D02*
X171967413Y-83468441D01*
X171967413Y-83468441D02*
X171832726Y-83468441D01*
X171832726Y-83468441D02*
X171731711Y-83434769D01*
X188112975Y-88220235D02*
X187405869Y-87513128D01*
X187405869Y-87513128D02*
X187574227Y-87344769D01*
X187574227Y-87344769D02*
X187708914Y-87277426D01*
X187708914Y-87277426D02*
X187843601Y-87277426D01*
X187843601Y-87277426D02*
X187944617Y-87311098D01*
X187944617Y-87311098D02*
X188112975Y-87412113D01*
X188112975Y-87412113D02*
X188213991Y-87513128D01*
X188213991Y-87513128D02*
X188315006Y-87681487D01*
X188315006Y-87681487D02*
X188348678Y-87782502D01*
X188348678Y-87782502D02*
X188348678Y-87917189D01*
X188348678Y-87917189D02*
X188281334Y-88051876D01*
X188281334Y-88051876D02*
X188112975Y-88220235D01*
X188146647Y-86907037D02*
X188146647Y-86839693D01*
X188146647Y-86839693D02*
X188180319Y-86738678D01*
X188180319Y-86738678D02*
X188348678Y-86570319D01*
X188348678Y-86570319D02*
X188449693Y-86536647D01*
X188449693Y-86536647D02*
X188517036Y-86536647D01*
X188517036Y-86536647D02*
X188618052Y-86570319D01*
X188618052Y-86570319D02*
X188685395Y-86637663D01*
X188685395Y-86637663D02*
X188752739Y-86772350D01*
X188752739Y-86772350D02*
X188752739Y-87580472D01*
X188752739Y-87580472D02*
X189190471Y-87142739D01*
X189123128Y-85795869D02*
X188786410Y-86132586D01*
X188786410Y-86132586D02*
X189089456Y-86502975D01*
X189089456Y-86502975D02*
X189089456Y-86435632D01*
X189089456Y-86435632D02*
X189123128Y-86334617D01*
X189123128Y-86334617D02*
X189291487Y-86166258D01*
X189291487Y-86166258D02*
X189392502Y-86132586D01*
X189392502Y-86132586D02*
X189459846Y-86132586D01*
X189459846Y-86132586D02*
X189560861Y-86166258D01*
X189560861Y-86166258D02*
X189729220Y-86334617D01*
X189729220Y-86334617D02*
X189762891Y-86435632D01*
X189762891Y-86435632D02*
X189762891Y-86502975D01*
X189762891Y-86502975D02*
X189729220Y-86603991D01*
X189729220Y-86603991D02*
X189560861Y-86772349D01*
X189560861Y-86772349D02*
X189459846Y-86806021D01*
X189459846Y-86806021D02*
X189392502Y-86806021D01*
X150376799Y-86733020D02*
X151083906Y-86025914D01*
X151083906Y-86025914D02*
X151252265Y-86194272D01*
X151252265Y-86194272D02*
X151319608Y-86328959D01*
X151319608Y-86328959D02*
X151319608Y-86463646D01*
X151319608Y-86463646D02*
X151285936Y-86564662D01*
X151285936Y-86564662D02*
X151184921Y-86733020D01*
X151184921Y-86733020D02*
X151083906Y-86834036D01*
X151083906Y-86834036D02*
X150915547Y-86935051D01*
X150915547Y-86935051D02*
X150814532Y-86968723D01*
X150814532Y-86968723D02*
X150679845Y-86968723D01*
X150679845Y-86968723D02*
X150545158Y-86901379D01*
X150545158Y-86901379D02*
X150376799Y-86733020D01*
X151723669Y-86665677D02*
X152195074Y-87137081D01*
X152195074Y-87137081D02*
X151184921Y-87541142D01*
X165023938Y-94305159D02*
X165731045Y-93598053D01*
X165731045Y-93598053D02*
X165899404Y-93766411D01*
X165899404Y-93766411D02*
X165966747Y-93901098D01*
X165966747Y-93901098D02*
X165966747Y-94035785D01*
X165966747Y-94035785D02*
X165933075Y-94136801D01*
X165933075Y-94136801D02*
X165832060Y-94305159D01*
X165832060Y-94305159D02*
X165731045Y-94406175D01*
X165731045Y-94406175D02*
X165562686Y-94507190D01*
X165562686Y-94507190D02*
X165461671Y-94540862D01*
X165461671Y-94540862D02*
X165326984Y-94540862D01*
X165326984Y-94540862D02*
X165192297Y-94473518D01*
X165192297Y-94473518D02*
X165023938Y-94305159D01*
X166101434Y-95382655D02*
X165697373Y-94978594D01*
X165899404Y-95180625D02*
X166606510Y-94473518D01*
X166606510Y-94473518D02*
X166438152Y-94507190D01*
X166438152Y-94507190D02*
X166303465Y-94507190D01*
X166303465Y-94507190D02*
X166202449Y-94473518D01*
X167414633Y-95281640D02*
X167279946Y-95146953D01*
X167279946Y-95146953D02*
X167178930Y-95113282D01*
X167178930Y-95113282D02*
X167111587Y-95113282D01*
X167111587Y-95113282D02*
X166943228Y-95146953D01*
X166943228Y-95146953D02*
X166774869Y-95247969D01*
X166774869Y-95247969D02*
X166505495Y-95517343D01*
X166505495Y-95517343D02*
X166471824Y-95618358D01*
X166471824Y-95618358D02*
X166471824Y-95685701D01*
X166471824Y-95685701D02*
X166505495Y-95786717D01*
X166505495Y-95786717D02*
X166640182Y-95921404D01*
X166640182Y-95921404D02*
X166741198Y-95955075D01*
X166741198Y-95955075D02*
X166808541Y-95955075D01*
X166808541Y-95955075D02*
X166909556Y-95921404D01*
X166909556Y-95921404D02*
X167077915Y-95753045D01*
X167077915Y-95753045D02*
X167111587Y-95652030D01*
X167111587Y-95652030D02*
X167111587Y-95584686D01*
X167111587Y-95584686D02*
X167077915Y-95483671D01*
X167077915Y-95483671D02*
X166943228Y-95348984D01*
X166943228Y-95348984D02*
X166842213Y-95315312D01*
X166842213Y-95315312D02*
X166774869Y-95315312D01*
X166774869Y-95315312D02*
X166673854Y-95348984D01*
X173643643Y-102762577D02*
X172936537Y-102055470D01*
X172936537Y-102055470D02*
X173104895Y-101887111D01*
X173104895Y-101887111D02*
X173239582Y-101819768D01*
X173239582Y-101819768D02*
X173374269Y-101819768D01*
X173374269Y-101819768D02*
X173475285Y-101853440D01*
X173475285Y-101853440D02*
X173643643Y-101954455D01*
X173643643Y-101954455D02*
X173744659Y-102055470D01*
X173744659Y-102055470D02*
X173845674Y-102223829D01*
X173845674Y-102223829D02*
X173879346Y-102324844D01*
X173879346Y-102324844D02*
X173879346Y-102459531D01*
X173879346Y-102459531D02*
X173812002Y-102594218D01*
X173812002Y-102594218D02*
X173643643Y-102762577D01*
X174721139Y-101685081D02*
X174317078Y-102089142D01*
X174519109Y-101887111D02*
X173812002Y-101180005D01*
X173812002Y-101180005D02*
X173845674Y-101348363D01*
X173845674Y-101348363D02*
X173845674Y-101483050D01*
X173845674Y-101483050D02*
X173812002Y-101584066D01*
X158934819Y-106416666D02*
X158458628Y-106749999D01*
X158934819Y-106988094D02*
X157934819Y-106988094D01*
X157934819Y-106988094D02*
X157934819Y-106607142D01*
X157934819Y-106607142D02*
X157982438Y-106511904D01*
X157982438Y-106511904D02*
X158030057Y-106464285D01*
X158030057Y-106464285D02*
X158125295Y-106416666D01*
X158125295Y-106416666D02*
X158268152Y-106416666D01*
X158268152Y-106416666D02*
X158363390Y-106464285D01*
X158363390Y-106464285D02*
X158411009Y-106511904D01*
X158411009Y-106511904D02*
X158458628Y-106607142D01*
X158458628Y-106607142D02*
X158458628Y-106988094D01*
X157934819Y-105559523D02*
X157934819Y-105749999D01*
X157934819Y-105749999D02*
X157982438Y-105845237D01*
X157982438Y-105845237D02*
X158030057Y-105892856D01*
X158030057Y-105892856D02*
X158172914Y-105988094D01*
X158172914Y-105988094D02*
X158363390Y-106035713D01*
X158363390Y-106035713D02*
X158744342Y-106035713D01*
X158744342Y-106035713D02*
X158839580Y-105988094D01*
X158839580Y-105988094D02*
X158887200Y-105940475D01*
X158887200Y-105940475D02*
X158934819Y-105845237D01*
X158934819Y-105845237D02*
X158934819Y-105654761D01*
X158934819Y-105654761D02*
X158887200Y-105559523D01*
X158887200Y-105559523D02*
X158839580Y-105511904D01*
X158839580Y-105511904D02*
X158744342Y-105464285D01*
X158744342Y-105464285D02*
X158506247Y-105464285D01*
X158506247Y-105464285D02*
X158411009Y-105511904D01*
X158411009Y-105511904D02*
X158363390Y-105559523D01*
X158363390Y-105559523D02*
X158315771Y-105654761D01*
X158315771Y-105654761D02*
X158315771Y-105845237D01*
X158315771Y-105845237D02*
X158363390Y-105940475D01*
X158363390Y-105940475D02*
X158411009Y-105988094D01*
X158411009Y-105988094D02*
X158506247Y-106035713D01*
X174781980Y-87549240D02*
X174074874Y-86842133D01*
X174074874Y-86842133D02*
X174243232Y-86673774D01*
X174243232Y-86673774D02*
X174377919Y-86606431D01*
X174377919Y-86606431D02*
X174512606Y-86606431D01*
X174512606Y-86606431D02*
X174613622Y-86640103D01*
X174613622Y-86640103D02*
X174781980Y-86741118D01*
X174781980Y-86741118D02*
X174882996Y-86842133D01*
X174882996Y-86842133D02*
X174984011Y-87010492D01*
X174984011Y-87010492D02*
X175017683Y-87111507D01*
X175017683Y-87111507D02*
X175017683Y-87246194D01*
X175017683Y-87246194D02*
X174950339Y-87380881D01*
X174950339Y-87380881D02*
X174781980Y-87549240D01*
X174815652Y-86236042D02*
X174815652Y-86168698D01*
X174815652Y-86168698D02*
X174849324Y-86067683D01*
X174849324Y-86067683D02*
X175017683Y-85899324D01*
X175017683Y-85899324D02*
X175118698Y-85865652D01*
X175118698Y-85865652D02*
X175186041Y-85865652D01*
X175186041Y-85865652D02*
X175287057Y-85899324D01*
X175287057Y-85899324D02*
X175354400Y-85966668D01*
X175354400Y-85966668D02*
X175421744Y-86101355D01*
X175421744Y-86101355D02*
X175421744Y-86909477D01*
X175421744Y-86909477D02*
X175859476Y-86471744D01*
X175489087Y-85562606D02*
X175489087Y-85495263D01*
X175489087Y-85495263D02*
X175522759Y-85394248D01*
X175522759Y-85394248D02*
X175691118Y-85225889D01*
X175691118Y-85225889D02*
X175792133Y-85192217D01*
X175792133Y-85192217D02*
X175859477Y-85192217D01*
X175859477Y-85192217D02*
X175960492Y-85225889D01*
X175960492Y-85225889D02*
X176027835Y-85293232D01*
X176027835Y-85293232D02*
X176095179Y-85427919D01*
X176095179Y-85427919D02*
X176095179Y-86236041D01*
X176095179Y-86236041D02*
X176532912Y-85798309D01*
X166117149Y-71813051D02*
X165410043Y-71105944D01*
X165410043Y-71105944D02*
X165578401Y-70937585D01*
X165578401Y-70937585D02*
X165713088Y-70870242D01*
X165713088Y-70870242D02*
X165847775Y-70870242D01*
X165847775Y-70870242D02*
X165948791Y-70903914D01*
X165948791Y-70903914D02*
X166117149Y-71004929D01*
X166117149Y-71004929D02*
X166218165Y-71105944D01*
X166218165Y-71105944D02*
X166319180Y-71274303D01*
X166319180Y-71274303D02*
X166352852Y-71375318D01*
X166352852Y-71375318D02*
X166352852Y-71510005D01*
X166352852Y-71510005D02*
X166285508Y-71644692D01*
X166285508Y-71644692D02*
X166117149Y-71813051D01*
X166150821Y-70499853D02*
X166150821Y-70432509D01*
X166150821Y-70432509D02*
X166184493Y-70331494D01*
X166184493Y-70331494D02*
X166352852Y-70163135D01*
X166352852Y-70163135D02*
X166453867Y-70129463D01*
X166453867Y-70129463D02*
X166521210Y-70129463D01*
X166521210Y-70129463D02*
X166622226Y-70163135D01*
X166622226Y-70163135D02*
X166689569Y-70230479D01*
X166689569Y-70230479D02*
X166756913Y-70365166D01*
X166756913Y-70365166D02*
X166756913Y-71173288D01*
X166756913Y-71173288D02*
X167194645Y-70735555D01*
X167329333Y-69658059D02*
X167800737Y-70129463D01*
X166891600Y-69557043D02*
X167228317Y-70230478D01*
X167228317Y-70230478D02*
X167666050Y-69792746D01*
X176764819Y-106676666D02*
X176288628Y-107009999D01*
X176764819Y-107248094D02*
X175764819Y-107248094D01*
X175764819Y-107248094D02*
X175764819Y-106867142D01*
X175764819Y-106867142D02*
X175812438Y-106771904D01*
X175812438Y-106771904D02*
X175860057Y-106724285D01*
X175860057Y-106724285D02*
X175955295Y-106676666D01*
X175955295Y-106676666D02*
X176098152Y-106676666D01*
X176098152Y-106676666D02*
X176193390Y-106724285D01*
X176193390Y-106724285D02*
X176241009Y-106771904D01*
X176241009Y-106771904D02*
X176288628Y-106867142D01*
X176288628Y-106867142D02*
X176288628Y-107248094D01*
X175764819Y-106343332D02*
X175764819Y-105724285D01*
X175764819Y-105724285D02*
X176145771Y-106057618D01*
X176145771Y-106057618D02*
X176145771Y-105914761D01*
X176145771Y-105914761D02*
X176193390Y-105819523D01*
X176193390Y-105819523D02*
X176241009Y-105771904D01*
X176241009Y-105771904D02*
X176336247Y-105724285D01*
X176336247Y-105724285D02*
X176574342Y-105724285D01*
X176574342Y-105724285D02*
X176669580Y-105771904D01*
X176669580Y-105771904D02*
X176717200Y-105819523D01*
X176717200Y-105819523D02*
X176764819Y-105914761D01*
X176764819Y-105914761D02*
X176764819Y-106200475D01*
X176764819Y-106200475D02*
X176717200Y-106295713D01*
X176717200Y-106295713D02*
X176669580Y-106343332D01*
X164552975Y-83420235D02*
X163845869Y-82713128D01*
X163845869Y-82713128D02*
X164014227Y-82544769D01*
X164014227Y-82544769D02*
X164148914Y-82477426D01*
X164148914Y-82477426D02*
X164283601Y-82477426D01*
X164283601Y-82477426D02*
X164384617Y-82511098D01*
X164384617Y-82511098D02*
X164552975Y-82612113D01*
X164552975Y-82612113D02*
X164653991Y-82713128D01*
X164653991Y-82713128D02*
X164755006Y-82881487D01*
X164755006Y-82881487D02*
X164788678Y-82982502D01*
X164788678Y-82982502D02*
X164788678Y-83117189D01*
X164788678Y-83117189D02*
X164721334Y-83251876D01*
X164721334Y-83251876D02*
X164552975Y-83420235D01*
X165630471Y-82342739D02*
X165226410Y-82746800D01*
X165428441Y-82544769D02*
X164721334Y-81837663D01*
X164721334Y-81837663D02*
X164755006Y-82006021D01*
X164755006Y-82006021D02*
X164755006Y-82140708D01*
X164755006Y-82140708D02*
X164721334Y-82241724D01*
X165159067Y-81399930D02*
X165630472Y-80928525D01*
X165630472Y-80928525D02*
X166034533Y-81938678D01*
X181097394Y-95308826D02*
X180390288Y-94601719D01*
X180390288Y-94601719D02*
X180558646Y-94433360D01*
X180558646Y-94433360D02*
X180693333Y-94366017D01*
X180693333Y-94366017D02*
X180828020Y-94366017D01*
X180828020Y-94366017D02*
X180929036Y-94399689D01*
X180929036Y-94399689D02*
X181097394Y-94500704D01*
X181097394Y-94500704D02*
X181198410Y-94601719D01*
X181198410Y-94601719D02*
X181299425Y-94770078D01*
X181299425Y-94770078D02*
X181333097Y-94871093D01*
X181333097Y-94871093D02*
X181333097Y-95005780D01*
X181333097Y-95005780D02*
X181265753Y-95140467D01*
X181265753Y-95140467D02*
X181097394Y-95308826D01*
X181838173Y-94568047D02*
X181972860Y-94433360D01*
X181972860Y-94433360D02*
X182006532Y-94332345D01*
X182006532Y-94332345D02*
X182006532Y-94265002D01*
X182006532Y-94265002D02*
X181972860Y-94096643D01*
X181972860Y-94096643D02*
X181871845Y-93928284D01*
X181871845Y-93928284D02*
X181602471Y-93658910D01*
X181602471Y-93658910D02*
X181501455Y-93625238D01*
X181501455Y-93625238D02*
X181434112Y-93625238D01*
X181434112Y-93625238D02*
X181333097Y-93658910D01*
X181333097Y-93658910D02*
X181198410Y-93793597D01*
X181198410Y-93793597D02*
X181164738Y-93894612D01*
X181164738Y-93894612D02*
X181164738Y-93961956D01*
X181164738Y-93961956D02*
X181198410Y-94062971D01*
X181198410Y-94062971D02*
X181366768Y-94231330D01*
X181366768Y-94231330D02*
X181467784Y-94265002D01*
X181467784Y-94265002D02*
X181535127Y-94265002D01*
X181535127Y-94265002D02*
X181636142Y-94231330D01*
X181636142Y-94231330D02*
X181770829Y-94096643D01*
X181770829Y-94096643D02*
X181804501Y-93995628D01*
X181804501Y-93995628D02*
X181804501Y-93928284D01*
X181804501Y-93928284D02*
X181770829Y-93827269D01*
X190219580Y-117036666D02*
X190267200Y-117084285D01*
X190267200Y-117084285D02*
X190314819Y-117227142D01*
X190314819Y-117227142D02*
X190314819Y-117322380D01*
X190314819Y-117322380D02*
X190267200Y-117465237D01*
X190267200Y-117465237D02*
X190171961Y-117560475D01*
X190171961Y-117560475D02*
X190076723Y-117608094D01*
X190076723Y-117608094D02*
X189886247Y-117655713D01*
X189886247Y-117655713D02*
X189743390Y-117655713D01*
X189743390Y-117655713D02*
X189552914Y-117608094D01*
X189552914Y-117608094D02*
X189457676Y-117560475D01*
X189457676Y-117560475D02*
X189362438Y-117465237D01*
X189362438Y-117465237D02*
X189314819Y-117322380D01*
X189314819Y-117322380D02*
X189314819Y-117227142D01*
X189314819Y-117227142D02*
X189362438Y-117084285D01*
X189362438Y-117084285D02*
X189410057Y-117036666D01*
X189410057Y-116655713D02*
X189362438Y-116608094D01*
X189362438Y-116608094D02*
X189314819Y-116512856D01*
X189314819Y-116512856D02*
X189314819Y-116274761D01*
X189314819Y-116274761D02*
X189362438Y-116179523D01*
X189362438Y-116179523D02*
X189410057Y-116131904D01*
X189410057Y-116131904D02*
X189505295Y-116084285D01*
X189505295Y-116084285D02*
X189600533Y-116084285D01*
X189600533Y-116084285D02*
X189743390Y-116131904D01*
X189743390Y-116131904D02*
X190314819Y-116703332D01*
X190314819Y-116703332D02*
X190314819Y-116084285D01*
X157856482Y-87219693D02*
X158563589Y-86512587D01*
X158563589Y-86512587D02*
X158731948Y-86680945D01*
X158731948Y-86680945D02*
X158799291Y-86815632D01*
X158799291Y-86815632D02*
X158799291Y-86950319D01*
X158799291Y-86950319D02*
X158765619Y-87051335D01*
X158765619Y-87051335D02*
X158664604Y-87219693D01*
X158664604Y-87219693D02*
X158563589Y-87320709D01*
X158563589Y-87320709D02*
X158395230Y-87421724D01*
X158395230Y-87421724D02*
X158294215Y-87455396D01*
X158294215Y-87455396D02*
X158159528Y-87455396D01*
X158159528Y-87455396D02*
X158024841Y-87388052D01*
X158024841Y-87388052D02*
X157856482Y-87219693D01*
X159068665Y-87623754D02*
X159034993Y-87522739D01*
X159034993Y-87522739D02*
X159034993Y-87455396D01*
X159034993Y-87455396D02*
X159068665Y-87354380D01*
X159068665Y-87354380D02*
X159102337Y-87320709D01*
X159102337Y-87320709D02*
X159203352Y-87287037D01*
X159203352Y-87287037D02*
X159270696Y-87287037D01*
X159270696Y-87287037D02*
X159371711Y-87320709D01*
X159371711Y-87320709D02*
X159506398Y-87455396D01*
X159506398Y-87455396D02*
X159540070Y-87556411D01*
X159540070Y-87556411D02*
X159540070Y-87623754D01*
X159540070Y-87623754D02*
X159506398Y-87724770D01*
X159506398Y-87724770D02*
X159472726Y-87758441D01*
X159472726Y-87758441D02*
X159371711Y-87792113D01*
X159371711Y-87792113D02*
X159304367Y-87792113D01*
X159304367Y-87792113D02*
X159203352Y-87758441D01*
X159203352Y-87758441D02*
X159068665Y-87623754D01*
X159068665Y-87623754D02*
X158967650Y-87590083D01*
X158967650Y-87590083D02*
X158900306Y-87590083D01*
X158900306Y-87590083D02*
X158799291Y-87623754D01*
X158799291Y-87623754D02*
X158664604Y-87758441D01*
X158664604Y-87758441D02*
X158630932Y-87859457D01*
X158630932Y-87859457D02*
X158630932Y-87926800D01*
X158630932Y-87926800D02*
X158664604Y-88027815D01*
X158664604Y-88027815D02*
X158799291Y-88162502D01*
X158799291Y-88162502D02*
X158900306Y-88196174D01*
X158900306Y-88196174D02*
X158967650Y-88196174D01*
X158967650Y-88196174D02*
X159068665Y-88162502D01*
X159068665Y-88162502D02*
X159203352Y-88027815D01*
X159203352Y-88027815D02*
X159237024Y-87926800D01*
X159237024Y-87926800D02*
X159237024Y-87859457D01*
X159237024Y-87859457D02*
X159203352Y-87758441D01*
X180752975Y-88430235D02*
X180045869Y-87723128D01*
X180045869Y-87723128D02*
X180214227Y-87554769D01*
X180214227Y-87554769D02*
X180348914Y-87487426D01*
X180348914Y-87487426D02*
X180483601Y-87487426D01*
X180483601Y-87487426D02*
X180584617Y-87521098D01*
X180584617Y-87521098D02*
X180752975Y-87622113D01*
X180752975Y-87622113D02*
X180853991Y-87723128D01*
X180853991Y-87723128D02*
X180955006Y-87891487D01*
X180955006Y-87891487D02*
X180988678Y-87992502D01*
X180988678Y-87992502D02*
X180988678Y-88127189D01*
X180988678Y-88127189D02*
X180921334Y-88261876D01*
X180921334Y-88261876D02*
X180752975Y-88430235D01*
X181830471Y-87352739D02*
X181426410Y-87756800D01*
X181628441Y-87554769D02*
X180921334Y-86847663D01*
X180921334Y-86847663D02*
X180955006Y-87016021D01*
X180955006Y-87016021D02*
X180955006Y-87150708D01*
X180955006Y-87150708D02*
X180921334Y-87251724D01*
X182503907Y-86679304D02*
X182099846Y-87083365D01*
X182301876Y-86881334D02*
X181594769Y-86174227D01*
X181594769Y-86174227D02*
X181628441Y-86342586D01*
X181628441Y-86342586D02*
X181628441Y-86477273D01*
X181628441Y-86477273D02*
X181594769Y-86578288D01*
X177052975Y-92300235D02*
X176345869Y-91593128D01*
X176345869Y-91593128D02*
X176514227Y-91424769D01*
X176514227Y-91424769D02*
X176648914Y-91357426D01*
X176648914Y-91357426D02*
X176783601Y-91357426D01*
X176783601Y-91357426D02*
X176884617Y-91391098D01*
X176884617Y-91391098D02*
X177052975Y-91492113D01*
X177052975Y-91492113D02*
X177153991Y-91593128D01*
X177153991Y-91593128D02*
X177255006Y-91761487D01*
X177255006Y-91761487D02*
X177288678Y-91862502D01*
X177288678Y-91862502D02*
X177288678Y-91997189D01*
X177288678Y-91997189D02*
X177221334Y-92131876D01*
X177221334Y-92131876D02*
X177052975Y-92300235D01*
X178130471Y-91222739D02*
X177726410Y-91626800D01*
X177928441Y-91424769D02*
X177221334Y-90717663D01*
X177221334Y-90717663D02*
X177255006Y-90886021D01*
X177255006Y-90886021D02*
X177255006Y-91020708D01*
X177255006Y-91020708D02*
X177221334Y-91121724D01*
X177861098Y-90077899D02*
X177928441Y-90010556D01*
X177928441Y-90010556D02*
X178029456Y-89976884D01*
X178029456Y-89976884D02*
X178096800Y-89976884D01*
X178096800Y-89976884D02*
X178197815Y-90010556D01*
X178197815Y-90010556D02*
X178366174Y-90111571D01*
X178366174Y-90111571D02*
X178534533Y-90279930D01*
X178534533Y-90279930D02*
X178635548Y-90448288D01*
X178635548Y-90448288D02*
X178669220Y-90549304D01*
X178669220Y-90549304D02*
X178669220Y-90616647D01*
X178669220Y-90616647D02*
X178635548Y-90717662D01*
X178635548Y-90717662D02*
X178568204Y-90785006D01*
X178568204Y-90785006D02*
X178467189Y-90818678D01*
X178467189Y-90818678D02*
X178399846Y-90818678D01*
X178399846Y-90818678D02*
X178298830Y-90785006D01*
X178298830Y-90785006D02*
X178130472Y-90683991D01*
X178130472Y-90683991D02*
X177962113Y-90515632D01*
X177962113Y-90515632D02*
X177861098Y-90347273D01*
X177861098Y-90347273D02*
X177827426Y-90246258D01*
X177827426Y-90246258D02*
X177827426Y-90178914D01*
X177827426Y-90178914D02*
X177861098Y-90077899D01*
X161617423Y-97973644D02*
X162324530Y-97266538D01*
X162324530Y-97266538D02*
X162492889Y-97434896D01*
X162492889Y-97434896D02*
X162560232Y-97569583D01*
X162560232Y-97569583D02*
X162560232Y-97704270D01*
X162560232Y-97704270D02*
X162526560Y-97805286D01*
X162526560Y-97805286D02*
X162425545Y-97973644D01*
X162425545Y-97973644D02*
X162324530Y-98074660D01*
X162324530Y-98074660D02*
X162156171Y-98175675D01*
X162156171Y-98175675D02*
X162055156Y-98209347D01*
X162055156Y-98209347D02*
X161920469Y-98209347D01*
X161920469Y-98209347D02*
X161785782Y-98142003D01*
X161785782Y-98142003D02*
X161617423Y-97973644D01*
X163098980Y-98512392D02*
X162627576Y-98983797D01*
X163199995Y-98074660D02*
X162526560Y-98411377D01*
X162526560Y-98411377D02*
X162964293Y-98849110D01*
X161364819Y-106456666D02*
X160888628Y-106789999D01*
X161364819Y-107028094D02*
X160364819Y-107028094D01*
X160364819Y-107028094D02*
X160364819Y-106647142D01*
X160364819Y-106647142D02*
X160412438Y-106551904D01*
X160412438Y-106551904D02*
X160460057Y-106504285D01*
X160460057Y-106504285D02*
X160555295Y-106456666D01*
X160555295Y-106456666D02*
X160698152Y-106456666D01*
X160698152Y-106456666D02*
X160793390Y-106504285D01*
X160793390Y-106504285D02*
X160841009Y-106551904D01*
X160841009Y-106551904D02*
X160888628Y-106647142D01*
X160888628Y-106647142D02*
X160888628Y-107028094D01*
X160364819Y-105551904D02*
X160364819Y-106028094D01*
X160364819Y-106028094D02*
X160841009Y-106075713D01*
X160841009Y-106075713D02*
X160793390Y-106028094D01*
X160793390Y-106028094D02*
X160745771Y-105932856D01*
X160745771Y-105932856D02*
X160745771Y-105694761D01*
X160745771Y-105694761D02*
X160793390Y-105599523D01*
X160793390Y-105599523D02*
X160841009Y-105551904D01*
X160841009Y-105551904D02*
X160936247Y-105504285D01*
X160936247Y-105504285D02*
X161174342Y-105504285D01*
X161174342Y-105504285D02*
X161269580Y-105551904D01*
X161269580Y-105551904D02*
X161317200Y-105599523D01*
X161317200Y-105599523D02*
X161364819Y-105694761D01*
X161364819Y-105694761D02*
X161364819Y-105932856D01*
X161364819Y-105932856D02*
X161317200Y-106028094D01*
X161317200Y-106028094D02*
X161269580Y-106075713D01*
X172111948Y-70142149D02*
X172819055Y-69435043D01*
X172819055Y-69435043D02*
X172987414Y-69603401D01*
X172987414Y-69603401D02*
X173054757Y-69738088D01*
X173054757Y-69738088D02*
X173054757Y-69872775D01*
X173054757Y-69872775D02*
X173021085Y-69973791D01*
X173021085Y-69973791D02*
X172920070Y-70142149D01*
X172920070Y-70142149D02*
X172819055Y-70243165D01*
X172819055Y-70243165D02*
X172650696Y-70344180D01*
X172650696Y-70344180D02*
X172549681Y-70377852D01*
X172549681Y-70377852D02*
X172414994Y-70377852D01*
X172414994Y-70377852D02*
X172280307Y-70310508D01*
X172280307Y-70310508D02*
X172111948Y-70142149D01*
X173425146Y-70175821D02*
X173492490Y-70175821D01*
X173492490Y-70175821D02*
X173593505Y-70209493D01*
X173593505Y-70209493D02*
X173761864Y-70377852D01*
X173761864Y-70377852D02*
X173795536Y-70478867D01*
X173795536Y-70478867D02*
X173795536Y-70546210D01*
X173795536Y-70546210D02*
X173761864Y-70647226D01*
X173761864Y-70647226D02*
X173694520Y-70714569D01*
X173694520Y-70714569D02*
X173559833Y-70781913D01*
X173559833Y-70781913D02*
X172751711Y-70781913D01*
X172751711Y-70781913D02*
X173189444Y-71219645D01*
X174132253Y-70748241D02*
X174569986Y-71185974D01*
X174569986Y-71185974D02*
X174064910Y-71219646D01*
X174064910Y-71219646D02*
X174165925Y-71320661D01*
X174165925Y-71320661D02*
X174199597Y-71421676D01*
X174199597Y-71421676D02*
X174199597Y-71489020D01*
X174199597Y-71489020D02*
X174165925Y-71590035D01*
X174165925Y-71590035D02*
X173997566Y-71758394D01*
X173997566Y-71758394D02*
X173896551Y-71792065D01*
X173896551Y-71792065D02*
X173829208Y-71792065D01*
X173829208Y-71792065D02*
X173728192Y-71758394D01*
X173728192Y-71758394D02*
X173526162Y-71556363D01*
X173526162Y-71556363D02*
X173492490Y-71455348D01*
X173492490Y-71455348D02*
X173492490Y-71388004D01*
X157936482Y-94239693D02*
X158643589Y-93532587D01*
X158643589Y-93532587D02*
X158811948Y-93700945D01*
X158811948Y-93700945D02*
X158879291Y-93835632D01*
X158879291Y-93835632D02*
X158879291Y-93970319D01*
X158879291Y-93970319D02*
X158845619Y-94071335D01*
X158845619Y-94071335D02*
X158744604Y-94239693D01*
X158744604Y-94239693D02*
X158643589Y-94340709D01*
X158643589Y-94340709D02*
X158475230Y-94441724D01*
X158475230Y-94441724D02*
X158374215Y-94475396D01*
X158374215Y-94475396D02*
X158239528Y-94475396D01*
X158239528Y-94475396D02*
X158104841Y-94408052D01*
X158104841Y-94408052D02*
X157936482Y-94239693D01*
X159687413Y-94576411D02*
X159350696Y-94239693D01*
X159350696Y-94239693D02*
X158980306Y-94542739D01*
X158980306Y-94542739D02*
X159047650Y-94542739D01*
X159047650Y-94542739D02*
X159148665Y-94576411D01*
X159148665Y-94576411D02*
X159317024Y-94744770D01*
X159317024Y-94744770D02*
X159350696Y-94845785D01*
X159350696Y-94845785D02*
X159350696Y-94913128D01*
X159350696Y-94913128D02*
X159317024Y-95014144D01*
X159317024Y-95014144D02*
X159148665Y-95182502D01*
X159148665Y-95182502D02*
X159047650Y-95216174D01*
X159047650Y-95216174D02*
X158980306Y-95216174D01*
X158980306Y-95216174D02*
X158879291Y-95182502D01*
X158879291Y-95182502D02*
X158710932Y-95014144D01*
X158710932Y-95014144D02*
X158677261Y-94913128D01*
X158677261Y-94913128D02*
X158677261Y-94845785D01*
X169983333Y-123999580D02*
X169935714Y-124047200D01*
X169935714Y-124047200D02*
X169792857Y-124094819D01*
X169792857Y-124094819D02*
X169697619Y-124094819D01*
X169697619Y-124094819D02*
X169554762Y-124047200D01*
X169554762Y-124047200D02*
X169459524Y-123951961D01*
X169459524Y-123951961D02*
X169411905Y-123856723D01*
X169411905Y-123856723D02*
X169364286Y-123666247D01*
X169364286Y-123666247D02*
X169364286Y-123523390D01*
X169364286Y-123523390D02*
X169411905Y-123332914D01*
X169411905Y-123332914D02*
X169459524Y-123237676D01*
X169459524Y-123237676D02*
X169554762Y-123142438D01*
X169554762Y-123142438D02*
X169697619Y-123094819D01*
X169697619Y-123094819D02*
X169792857Y-123094819D01*
X169792857Y-123094819D02*
X169935714Y-123142438D01*
X169935714Y-123142438D02*
X169983333Y-123190057D01*
X170840476Y-123428152D02*
X170840476Y-124094819D01*
X170602381Y-123047200D02*
X170364286Y-123761485D01*
X170364286Y-123761485D02*
X170983333Y-123761485D01*
X170093333Y-121429580D02*
X170045714Y-121477200D01*
X170045714Y-121477200D02*
X169902857Y-121524819D01*
X169902857Y-121524819D02*
X169807619Y-121524819D01*
X169807619Y-121524819D02*
X169664762Y-121477200D01*
X169664762Y-121477200D02*
X169569524Y-121381961D01*
X169569524Y-121381961D02*
X169521905Y-121286723D01*
X169521905Y-121286723D02*
X169474286Y-121096247D01*
X169474286Y-121096247D02*
X169474286Y-120953390D01*
X169474286Y-120953390D02*
X169521905Y-120762914D01*
X169521905Y-120762914D02*
X169569524Y-120667676D01*
X169569524Y-120667676D02*
X169664762Y-120572438D01*
X169664762Y-120572438D02*
X169807619Y-120524819D01*
X169807619Y-120524819D02*
X169902857Y-120524819D01*
X169902857Y-120524819D02*
X170045714Y-120572438D01*
X170045714Y-120572438D02*
X170093333Y-120620057D01*
X171045714Y-121524819D02*
X170474286Y-121524819D01*
X170760000Y-121524819D02*
X170760000Y-120524819D01*
X170760000Y-120524819D02*
X170664762Y-120667676D01*
X170664762Y-120667676D02*
X170569524Y-120762914D01*
X170569524Y-120762914D02*
X170474286Y-120810533D01*
X173181980Y-96049240D02*
X172474874Y-95342133D01*
X172474874Y-95342133D02*
X172643232Y-95173774D01*
X172643232Y-95173774D02*
X172777919Y-95106431D01*
X172777919Y-95106431D02*
X172912606Y-95106431D01*
X172912606Y-95106431D02*
X173013622Y-95140103D01*
X173013622Y-95140103D02*
X173181980Y-95241118D01*
X173181980Y-95241118D02*
X173282996Y-95342133D01*
X173282996Y-95342133D02*
X173384011Y-95510492D01*
X173384011Y-95510492D02*
X173417683Y-95611507D01*
X173417683Y-95611507D02*
X173417683Y-95746194D01*
X173417683Y-95746194D02*
X173350339Y-95880881D01*
X173350339Y-95880881D02*
X173181980Y-96049240D01*
X174259476Y-94971744D02*
X173855415Y-95375805D01*
X174057446Y-95173774D02*
X173350339Y-94466668D01*
X173350339Y-94466668D02*
X173384011Y-94635026D01*
X173384011Y-94635026D02*
X173384011Y-94769713D01*
X173384011Y-94769713D02*
X173350339Y-94870729D01*
X173788072Y-94028935D02*
X174225805Y-93591202D01*
X174225805Y-93591202D02*
X174259477Y-94096278D01*
X174259477Y-94096278D02*
X174360492Y-93995263D01*
X174360492Y-93995263D02*
X174461507Y-93961591D01*
X174461507Y-93961591D02*
X174528851Y-93961591D01*
X174528851Y-93961591D02*
X174629866Y-93995263D01*
X174629866Y-93995263D02*
X174798225Y-94163622D01*
X174798225Y-94163622D02*
X174831896Y-94264637D01*
X174831896Y-94264637D02*
X174831896Y-94331980D01*
X174831896Y-94331980D02*
X174798225Y-94432996D01*
X174798225Y-94432996D02*
X174596194Y-94635026D01*
X174596194Y-94635026D02*
X174495179Y-94668698D01*
X174495179Y-94668698D02*
X174427835Y-94668698D01*
X184487551Y-91918669D02*
X183780445Y-91211562D01*
X183780445Y-91211562D02*
X183948803Y-91043203D01*
X183948803Y-91043203D02*
X184083490Y-90975860D01*
X184083490Y-90975860D02*
X184218177Y-90975860D01*
X184218177Y-90975860D02*
X184319193Y-91009532D01*
X184319193Y-91009532D02*
X184487551Y-91110547D01*
X184487551Y-91110547D02*
X184588567Y-91211562D01*
X184588567Y-91211562D02*
X184689582Y-91379921D01*
X184689582Y-91379921D02*
X184723254Y-91480936D01*
X184723254Y-91480936D02*
X184723254Y-91615623D01*
X184723254Y-91615623D02*
X184655910Y-91750310D01*
X184655910Y-91750310D02*
X184487551Y-91918669D01*
X185565047Y-90841173D02*
X185160986Y-91245234D01*
X185363017Y-91043203D02*
X184655910Y-90336097D01*
X184655910Y-90336097D02*
X184689582Y-90504455D01*
X184689582Y-90504455D02*
X184689582Y-90639142D01*
X184689582Y-90639142D02*
X184655910Y-90740158D01*
X185194658Y-89932035D02*
X185194658Y-89864692D01*
X185194658Y-89864692D02*
X185228330Y-89763677D01*
X185228330Y-89763677D02*
X185396689Y-89595318D01*
X185396689Y-89595318D02*
X185497704Y-89561646D01*
X185497704Y-89561646D02*
X185565048Y-89561646D01*
X185565048Y-89561646D02*
X185666063Y-89595318D01*
X185666063Y-89595318D02*
X185733406Y-89662661D01*
X185733406Y-89662661D02*
X185800750Y-89797348D01*
X185800750Y-89797348D02*
X185800750Y-90605470D01*
X185800750Y-90605470D02*
X186238483Y-90167738D01*
X188329819Y-115076904D02*
X189139342Y-115076904D01*
X189139342Y-115076904D02*
X189234580Y-115029285D01*
X189234580Y-115029285D02*
X189282200Y-114981666D01*
X189282200Y-114981666D02*
X189329819Y-114886428D01*
X189329819Y-114886428D02*
X189329819Y-114695952D01*
X189329819Y-114695952D02*
X189282200Y-114600714D01*
X189282200Y-114600714D02*
X189234580Y-114553095D01*
X189234580Y-114553095D02*
X189139342Y-114505476D01*
X189139342Y-114505476D02*
X188329819Y-114505476D01*
X189329819Y-113505476D02*
X189329819Y-114076904D01*
X189329819Y-113791190D02*
X188329819Y-113791190D01*
X188329819Y-113791190D02*
X188472676Y-113886428D01*
X188472676Y-113886428D02*
X188567914Y-113981666D01*
X188567914Y-113981666D02*
X188615533Y-114076904D01*
X165049764Y-87802975D02*
X165756871Y-87095869D01*
X165756871Y-87095869D02*
X165925230Y-87264227D01*
X165925230Y-87264227D02*
X165992573Y-87398914D01*
X165992573Y-87398914D02*
X165992573Y-87533601D01*
X165992573Y-87533601D02*
X165958901Y-87634617D01*
X165958901Y-87634617D02*
X165857886Y-87802975D01*
X165857886Y-87802975D02*
X165756871Y-87903991D01*
X165756871Y-87903991D02*
X165588512Y-88005006D01*
X165588512Y-88005006D02*
X165487497Y-88038678D01*
X165487497Y-88038678D02*
X165352810Y-88038678D01*
X165352810Y-88038678D02*
X165218123Y-87971334D01*
X165218123Y-87971334D02*
X165049764Y-87802975D01*
X166127260Y-88880471D02*
X165723199Y-88476410D01*
X165925230Y-88678441D02*
X166632336Y-87971334D01*
X166632336Y-87971334D02*
X166463978Y-88005006D01*
X166463978Y-88005006D02*
X166329291Y-88005006D01*
X166329291Y-88005006D02*
X166228275Y-87971334D01*
X166935382Y-88880472D02*
X166901711Y-88779456D01*
X166901711Y-88779456D02*
X166901711Y-88712113D01*
X166901711Y-88712113D02*
X166935382Y-88611098D01*
X166935382Y-88611098D02*
X166969054Y-88577426D01*
X166969054Y-88577426D02*
X167070069Y-88543754D01*
X167070069Y-88543754D02*
X167137413Y-88543754D01*
X167137413Y-88543754D02*
X167238428Y-88577426D01*
X167238428Y-88577426D02*
X167373115Y-88712113D01*
X167373115Y-88712113D02*
X167406787Y-88813128D01*
X167406787Y-88813128D02*
X167406787Y-88880472D01*
X167406787Y-88880472D02*
X167373115Y-88981487D01*
X167373115Y-88981487D02*
X167339443Y-89015159D01*
X167339443Y-89015159D02*
X167238428Y-89048830D01*
X167238428Y-89048830D02*
X167171085Y-89048830D01*
X167171085Y-89048830D02*
X167070069Y-89015159D01*
X167070069Y-89015159D02*
X166935382Y-88880472D01*
X166935382Y-88880472D02*
X166834367Y-88846800D01*
X166834367Y-88846800D02*
X166767024Y-88846800D01*
X166767024Y-88846800D02*
X166666008Y-88880472D01*
X166666008Y-88880472D02*
X166531321Y-89015159D01*
X166531321Y-89015159D02*
X166497650Y-89116174D01*
X166497650Y-89116174D02*
X166497650Y-89183517D01*
X166497650Y-89183517D02*
X166531321Y-89284533D01*
X166531321Y-89284533D02*
X166666008Y-89419220D01*
X166666008Y-89419220D02*
X166767024Y-89452891D01*
X166767024Y-89452891D02*
X166834367Y-89452891D01*
X166834367Y-89452891D02*
X166935382Y-89419220D01*
X166935382Y-89419220D02*
X167070069Y-89284533D01*
X167070069Y-89284533D02*
X167103741Y-89183517D01*
X167103741Y-89183517D02*
X167103741Y-89116174D01*
X167103741Y-89116174D02*
X167070069Y-89015159D01*
X190314819Y-112036666D02*
X189838628Y-112369999D01*
X190314819Y-112608094D02*
X189314819Y-112608094D01*
X189314819Y-112608094D02*
X189314819Y-112227142D01*
X189314819Y-112227142D02*
X189362438Y-112131904D01*
X189362438Y-112131904D02*
X189410057Y-112084285D01*
X189410057Y-112084285D02*
X189505295Y-112036666D01*
X189505295Y-112036666D02*
X189648152Y-112036666D01*
X189648152Y-112036666D02*
X189743390Y-112084285D01*
X189743390Y-112084285D02*
X189791009Y-112131904D01*
X189791009Y-112131904D02*
X189838628Y-112227142D01*
X189838628Y-112227142D02*
X189838628Y-112608094D01*
X189314819Y-111703332D02*
X189314819Y-111036666D01*
X189314819Y-111036666D02*
X190314819Y-111465237D01*
X166552580Y-79158801D02*
X167259687Y-78451695D01*
X167259687Y-78451695D02*
X167428046Y-78620053D01*
X167428046Y-78620053D02*
X167495389Y-78754740D01*
X167495389Y-78754740D02*
X167495389Y-78889427D01*
X167495389Y-78889427D02*
X167461717Y-78990443D01*
X167461717Y-78990443D02*
X167360702Y-79158801D01*
X167360702Y-79158801D02*
X167259687Y-79259817D01*
X167259687Y-79259817D02*
X167091328Y-79360832D01*
X167091328Y-79360832D02*
X166990313Y-79394504D01*
X166990313Y-79394504D02*
X166855626Y-79394504D01*
X166855626Y-79394504D02*
X166720939Y-79327160D01*
X166720939Y-79327160D02*
X166552580Y-79158801D01*
X167865778Y-79192473D02*
X167933122Y-79192473D01*
X167933122Y-79192473D02*
X168034137Y-79226145D01*
X168034137Y-79226145D02*
X168202496Y-79394504D01*
X168202496Y-79394504D02*
X168236168Y-79495519D01*
X168236168Y-79495519D02*
X168236168Y-79562862D01*
X168236168Y-79562862D02*
X168202496Y-79663878D01*
X168202496Y-79663878D02*
X168135152Y-79731221D01*
X168135152Y-79731221D02*
X168000465Y-79798565D01*
X168000465Y-79798565D02*
X167192343Y-79798565D01*
X167192343Y-79798565D02*
X167630076Y-80236297D01*
X168774916Y-79966924D02*
X168842259Y-80034267D01*
X168842259Y-80034267D02*
X168875931Y-80135282D01*
X168875931Y-80135282D02*
X168875931Y-80202626D01*
X168875931Y-80202626D02*
X168842259Y-80303641D01*
X168842259Y-80303641D02*
X168741244Y-80472000D01*
X168741244Y-80472000D02*
X168572885Y-80640359D01*
X168572885Y-80640359D02*
X168404527Y-80741374D01*
X168404527Y-80741374D02*
X168303511Y-80775046D01*
X168303511Y-80775046D02*
X168236168Y-80775046D01*
X168236168Y-80775046D02*
X168135153Y-80741374D01*
X168135153Y-80741374D02*
X168067809Y-80674030D01*
X168067809Y-80674030D02*
X168034137Y-80573015D01*
X168034137Y-80573015D02*
X168034137Y-80505672D01*
X168034137Y-80505672D02*
X168067809Y-80404656D01*
X168067809Y-80404656D02*
X168168824Y-80236298D01*
X168168824Y-80236298D02*
X168337183Y-80067939D01*
X168337183Y-80067939D02*
X168505542Y-79966924D01*
X168505542Y-79966924D02*
X168606557Y-79933252D01*
X168606557Y-79933252D02*
X168673901Y-79933252D01*
X168673901Y-79933252D02*
X168774916Y-79966924D01*
X181834819Y-106526666D02*
X181358628Y-106859999D01*
X181834819Y-107098094D02*
X180834819Y-107098094D01*
X180834819Y-107098094D02*
X180834819Y-106717142D01*
X180834819Y-106717142D02*
X180882438Y-106621904D01*
X180882438Y-106621904D02*
X180930057Y-106574285D01*
X180930057Y-106574285D02*
X181025295Y-106526666D01*
X181025295Y-106526666D02*
X181168152Y-106526666D01*
X181168152Y-106526666D02*
X181263390Y-106574285D01*
X181263390Y-106574285D02*
X181311009Y-106621904D01*
X181311009Y-106621904D02*
X181358628Y-106717142D01*
X181358628Y-106717142D02*
X181358628Y-107098094D01*
X181834819Y-105574285D02*
X181834819Y-106145713D01*
X181834819Y-105859999D02*
X180834819Y-105859999D01*
X180834819Y-105859999D02*
X180977676Y-105955237D01*
X180977676Y-105955237D02*
X181072914Y-106050475D01*
X181072914Y-106050475D02*
X181120533Y-106145713D01*
X177370519Y-99035701D02*
X176663413Y-98328594D01*
X176663413Y-98328594D02*
X176831771Y-98160235D01*
X176831771Y-98160235D02*
X176966458Y-98092892D01*
X176966458Y-98092892D02*
X177101145Y-98092892D01*
X177101145Y-98092892D02*
X177202161Y-98126564D01*
X177202161Y-98126564D02*
X177370519Y-98227579D01*
X177370519Y-98227579D02*
X177471535Y-98328594D01*
X177471535Y-98328594D02*
X177572550Y-98496953D01*
X177572550Y-98496953D02*
X177606222Y-98597968D01*
X177606222Y-98597968D02*
X177606222Y-98732655D01*
X177606222Y-98732655D02*
X177538878Y-98867342D01*
X177538878Y-98867342D02*
X177370519Y-99035701D01*
X177404191Y-97722503D02*
X177404191Y-97655159D01*
X177404191Y-97655159D02*
X177437863Y-97554144D01*
X177437863Y-97554144D02*
X177606222Y-97385785D01*
X177606222Y-97385785D02*
X177707237Y-97352113D01*
X177707237Y-97352113D02*
X177774580Y-97352113D01*
X177774580Y-97352113D02*
X177875596Y-97385785D01*
X177875596Y-97385785D02*
X177942939Y-97453129D01*
X177942939Y-97453129D02*
X178010283Y-97587816D01*
X178010283Y-97587816D02*
X178010283Y-98395938D01*
X178010283Y-98395938D02*
X178448015Y-97958205D01*
X165364298Y-101720519D02*
X166071405Y-101013413D01*
X166071405Y-101013413D02*
X166239764Y-101181771D01*
X166239764Y-101181771D02*
X166307107Y-101316458D01*
X166307107Y-101316458D02*
X166307107Y-101451145D01*
X166307107Y-101451145D02*
X166273435Y-101552161D01*
X166273435Y-101552161D02*
X166172420Y-101720519D01*
X166172420Y-101720519D02*
X166071405Y-101821535D01*
X166071405Y-101821535D02*
X165903046Y-101922550D01*
X165903046Y-101922550D02*
X165802031Y-101956222D01*
X165802031Y-101956222D02*
X165667344Y-101956222D01*
X165667344Y-101956222D02*
X165532657Y-101888878D01*
X165532657Y-101888878D02*
X165364298Y-101720519D01*
X166711168Y-101653176D02*
X167148901Y-102090909D01*
X167148901Y-102090909D02*
X166643825Y-102124580D01*
X166643825Y-102124580D02*
X166744840Y-102225596D01*
X166744840Y-102225596D02*
X166778512Y-102326611D01*
X166778512Y-102326611D02*
X166778512Y-102393954D01*
X166778512Y-102393954D02*
X166744840Y-102494970D01*
X166744840Y-102494970D02*
X166576481Y-102663328D01*
X166576481Y-102663328D02*
X166475466Y-102697000D01*
X166475466Y-102697000D02*
X166408122Y-102697000D01*
X166408122Y-102697000D02*
X166307107Y-102663328D01*
X166307107Y-102663328D02*
X166105077Y-102461298D01*
X166105077Y-102461298D02*
X166071405Y-102360283D01*
X166071405Y-102360283D02*
X166071405Y-102292939D01*
X161256208Y-90537429D02*
X161963315Y-89830323D01*
X161963315Y-89830323D02*
X162131674Y-89998681D01*
X162131674Y-89998681D02*
X162199017Y-90133368D01*
X162199017Y-90133368D02*
X162199017Y-90268055D01*
X162199017Y-90268055D02*
X162165345Y-90369071D01*
X162165345Y-90369071D02*
X162064330Y-90537429D01*
X162064330Y-90537429D02*
X161963315Y-90638445D01*
X161963315Y-90638445D02*
X161794956Y-90739460D01*
X161794956Y-90739460D02*
X161693941Y-90773132D01*
X161693941Y-90773132D02*
X161559254Y-90773132D01*
X161559254Y-90773132D02*
X161424567Y-90705788D01*
X161424567Y-90705788D02*
X161256208Y-90537429D01*
X162333704Y-91614925D02*
X161929643Y-91210864D01*
X162131674Y-91412895D02*
X162838780Y-90705788D01*
X162838780Y-90705788D02*
X162670422Y-90739460D01*
X162670422Y-90739460D02*
X162535735Y-90739460D01*
X162535735Y-90739460D02*
X162434719Y-90705788D01*
X163680574Y-91547582D02*
X163343857Y-91210864D01*
X163343857Y-91210864D02*
X162973468Y-91513910D01*
X162973468Y-91513910D02*
X163040811Y-91513910D01*
X163040811Y-91513910D02*
X163141826Y-91547582D01*
X163141826Y-91547582D02*
X163310185Y-91715941D01*
X163310185Y-91715941D02*
X163343857Y-91816956D01*
X163343857Y-91816956D02*
X163343857Y-91884300D01*
X163343857Y-91884300D02*
X163310185Y-91985315D01*
X163310185Y-91985315D02*
X163141826Y-92153674D01*
X163141826Y-92153674D02*
X163040811Y-92187345D01*
X163040811Y-92187345D02*
X162973468Y-92187345D01*
X162973468Y-92187345D02*
X162872452Y-92153674D01*
X162872452Y-92153674D02*
X162704094Y-91985315D01*
X162704094Y-91985315D02*
X162670422Y-91884300D01*
X162670422Y-91884300D02*
X162670422Y-91816956D01*
X163431222Y-76062443D02*
X164138329Y-75355337D01*
X164138329Y-75355337D02*
X164306688Y-75523695D01*
X164306688Y-75523695D02*
X164374031Y-75658382D01*
X164374031Y-75658382D02*
X164374031Y-75793069D01*
X164374031Y-75793069D02*
X164340359Y-75894085D01*
X164340359Y-75894085D02*
X164239344Y-76062443D01*
X164239344Y-76062443D02*
X164138329Y-76163459D01*
X164138329Y-76163459D02*
X163969970Y-76264474D01*
X163969970Y-76264474D02*
X163868955Y-76298146D01*
X163868955Y-76298146D02*
X163734268Y-76298146D01*
X163734268Y-76298146D02*
X163599581Y-76230802D01*
X163599581Y-76230802D02*
X163431222Y-76062443D01*
X164508718Y-77139939D02*
X164104657Y-76735878D01*
X164306688Y-76937909D02*
X165013794Y-76230802D01*
X165013794Y-76230802D02*
X164845436Y-76264474D01*
X164845436Y-76264474D02*
X164710749Y-76264474D01*
X164710749Y-76264474D02*
X164609733Y-76230802D01*
X164845436Y-77476657D02*
X164980123Y-77611344D01*
X164980123Y-77611344D02*
X165081138Y-77645016D01*
X165081138Y-77645016D02*
X165148482Y-77645016D01*
X165148482Y-77645016D02*
X165316840Y-77611344D01*
X165316840Y-77611344D02*
X165485199Y-77510329D01*
X165485199Y-77510329D02*
X165754573Y-77240955D01*
X165754573Y-77240955D02*
X165788245Y-77139940D01*
X165788245Y-77139940D02*
X165788245Y-77072596D01*
X165788245Y-77072596D02*
X165754573Y-76971581D01*
X165754573Y-76971581D02*
X165619886Y-76836894D01*
X165619886Y-76836894D02*
X165518871Y-76803222D01*
X165518871Y-76803222D02*
X165451527Y-76803222D01*
X165451527Y-76803222D02*
X165350512Y-76836894D01*
X165350512Y-76836894D02*
X165182153Y-77005253D01*
X165182153Y-77005253D02*
X165148482Y-77106268D01*
X165148482Y-77106268D02*
X165148482Y-77173611D01*
X165148482Y-77173611D02*
X165182153Y-77274627D01*
X165182153Y-77274627D02*
X165316840Y-77409314D01*
X165316840Y-77409314D02*
X165417856Y-77442985D01*
X165417856Y-77442985D02*
X165485199Y-77442985D01*
X165485199Y-77442985D02*
X165586214Y-77409314D01*
X171582975Y-90870235D02*
X170875869Y-90163128D01*
X170875869Y-90163128D02*
X171044227Y-89994769D01*
X171044227Y-89994769D02*
X171178914Y-89927426D01*
X171178914Y-89927426D02*
X171313601Y-89927426D01*
X171313601Y-89927426D02*
X171414617Y-89961098D01*
X171414617Y-89961098D02*
X171582975Y-90062113D01*
X171582975Y-90062113D02*
X171683991Y-90163128D01*
X171683991Y-90163128D02*
X171785006Y-90331487D01*
X171785006Y-90331487D02*
X171818678Y-90432502D01*
X171818678Y-90432502D02*
X171818678Y-90567189D01*
X171818678Y-90567189D02*
X171751334Y-90701876D01*
X171751334Y-90701876D02*
X171582975Y-90870235D01*
X172660471Y-89792739D02*
X172256410Y-90196800D01*
X172458441Y-89994769D02*
X171751334Y-89287663D01*
X171751334Y-89287663D02*
X171785006Y-89456021D01*
X171785006Y-89456021D02*
X171785006Y-89590708D01*
X171785006Y-89590708D02*
X171751334Y-89691724D01*
X172795159Y-88715243D02*
X173266563Y-89186647D01*
X172357426Y-88614227D02*
X172694143Y-89287662D01*
X172694143Y-89287662D02*
X173131876Y-88849930D01*
X154236482Y-90459693D02*
X154943589Y-89752587D01*
X154943589Y-89752587D02*
X155111948Y-89920945D01*
X155111948Y-89920945D02*
X155179291Y-90055632D01*
X155179291Y-90055632D02*
X155179291Y-90190319D01*
X155179291Y-90190319D02*
X155145619Y-90291335D01*
X155145619Y-90291335D02*
X155044604Y-90459693D01*
X155044604Y-90459693D02*
X154943589Y-90560709D01*
X154943589Y-90560709D02*
X154775230Y-90661724D01*
X154775230Y-90661724D02*
X154674215Y-90695396D01*
X154674215Y-90695396D02*
X154539528Y-90695396D01*
X154539528Y-90695396D02*
X154404841Y-90628052D01*
X154404841Y-90628052D02*
X154236482Y-90459693D01*
X155953741Y-90762739D02*
X155819054Y-90628052D01*
X155819054Y-90628052D02*
X155718039Y-90594380D01*
X155718039Y-90594380D02*
X155650696Y-90594380D01*
X155650696Y-90594380D02*
X155482337Y-90628052D01*
X155482337Y-90628052D02*
X155313978Y-90729067D01*
X155313978Y-90729067D02*
X155044604Y-90998441D01*
X155044604Y-90998441D02*
X155010932Y-91099457D01*
X155010932Y-91099457D02*
X155010932Y-91166800D01*
X155010932Y-91166800D02*
X155044604Y-91267815D01*
X155044604Y-91267815D02*
X155179291Y-91402502D01*
X155179291Y-91402502D02*
X155280306Y-91436174D01*
X155280306Y-91436174D02*
X155347650Y-91436174D01*
X155347650Y-91436174D02*
X155448665Y-91402502D01*
X155448665Y-91402502D02*
X155617024Y-91234144D01*
X155617024Y-91234144D02*
X155650696Y-91133128D01*
X155650696Y-91133128D02*
X155650696Y-91065785D01*
X155650696Y-91065785D02*
X155617024Y-90964770D01*
X155617024Y-90964770D02*
X155482337Y-90830083D01*
X155482337Y-90830083D02*
X155381322Y-90796411D01*
X155381322Y-90796411D02*
X155313978Y-90796411D01*
X155313978Y-90796411D02*
X155212963Y-90830083D01*
X174482975Y-78000235D02*
X173775869Y-77293128D01*
X173775869Y-77293128D02*
X173944227Y-77124769D01*
X173944227Y-77124769D02*
X174078914Y-77057426D01*
X174078914Y-77057426D02*
X174213601Y-77057426D01*
X174213601Y-77057426D02*
X174314617Y-77091098D01*
X174314617Y-77091098D02*
X174482975Y-77192113D01*
X174482975Y-77192113D02*
X174583991Y-77293128D01*
X174583991Y-77293128D02*
X174685006Y-77461487D01*
X174685006Y-77461487D02*
X174718678Y-77562502D01*
X174718678Y-77562502D02*
X174718678Y-77697189D01*
X174718678Y-77697189D02*
X174651334Y-77831876D01*
X174651334Y-77831876D02*
X174482975Y-78000235D01*
X174516647Y-76687037D02*
X174516647Y-76619693D01*
X174516647Y-76619693D02*
X174550319Y-76518678D01*
X174550319Y-76518678D02*
X174718678Y-76350319D01*
X174718678Y-76350319D02*
X174819693Y-76316647D01*
X174819693Y-76316647D02*
X174887036Y-76316647D01*
X174887036Y-76316647D02*
X174988052Y-76350319D01*
X174988052Y-76350319D02*
X175055395Y-76417663D01*
X175055395Y-76417663D02*
X175122739Y-76552350D01*
X175122739Y-76552350D02*
X175122739Y-77360472D01*
X175122739Y-77360472D02*
X175560471Y-76922739D01*
X175459456Y-75609540D02*
X175324769Y-75744227D01*
X175324769Y-75744227D02*
X175291098Y-75845243D01*
X175291098Y-75845243D02*
X175291098Y-75912586D01*
X175291098Y-75912586D02*
X175324769Y-76080945D01*
X175324769Y-76080945D02*
X175425785Y-76249304D01*
X175425785Y-76249304D02*
X175695159Y-76518678D01*
X175695159Y-76518678D02*
X175796174Y-76552349D01*
X175796174Y-76552349D02*
X175863517Y-76552349D01*
X175863517Y-76552349D02*
X175964533Y-76518678D01*
X175964533Y-76518678D02*
X176099220Y-76383991D01*
X176099220Y-76383991D02*
X176132891Y-76282975D01*
X176132891Y-76282975D02*
X176132891Y-76215632D01*
X176132891Y-76215632D02*
X176099220Y-76114617D01*
X176099220Y-76114617D02*
X175930861Y-75946258D01*
X175930861Y-75946258D02*
X175829846Y-75912586D01*
X175829846Y-75912586D02*
X175762502Y-75912586D01*
X175762502Y-75912586D02*
X175661487Y-75946258D01*
X175661487Y-75946258D02*
X175526800Y-76080945D01*
X175526800Y-76080945D02*
X175493128Y-76181960D01*
X175493128Y-76181960D02*
X175493128Y-76249304D01*
X175493128Y-76249304D02*
X175526800Y-76350319D01*
X179154819Y-106526666D02*
X178678628Y-106859999D01*
X179154819Y-107098094D02*
X178154819Y-107098094D01*
X178154819Y-107098094D02*
X178154819Y-106717142D01*
X178154819Y-106717142D02*
X178202438Y-106621904D01*
X178202438Y-106621904D02*
X178250057Y-106574285D01*
X178250057Y-106574285D02*
X178345295Y-106526666D01*
X178345295Y-106526666D02*
X178488152Y-106526666D01*
X178488152Y-106526666D02*
X178583390Y-106574285D01*
X178583390Y-106574285D02*
X178631009Y-106621904D01*
X178631009Y-106621904D02*
X178678628Y-106717142D01*
X178678628Y-106717142D02*
X178678628Y-107098094D01*
X178250057Y-106145713D02*
X178202438Y-106098094D01*
X178202438Y-106098094D02*
X178154819Y-106002856D01*
X178154819Y-106002856D02*
X178154819Y-105764761D01*
X178154819Y-105764761D02*
X178202438Y-105669523D01*
X178202438Y-105669523D02*
X178250057Y-105621904D01*
X178250057Y-105621904D02*
X178345295Y-105574285D01*
X178345295Y-105574285D02*
X178440533Y-105574285D01*
X178440533Y-105574285D02*
X178583390Y-105621904D01*
X178583390Y-105621904D02*
X179154819Y-106193332D01*
X179154819Y-106193332D02*
X179154819Y-105574285D01*
D11*
%TO.C,R4*%
X162515000Y-107127064D02*
X162515000Y-105672936D01*
X164335000Y-107127064D02*
X164335000Y-105672936D01*
%TO.C,D21*%
X169981130Y-80911263D02*
X172851984Y-83782116D01*
X171586263Y-79306130D02*
X169981130Y-80911263D01*
X174457116Y-82176984D02*
X171586263Y-79306130D01*
%TO.C,D25*%
X184947217Y-86622650D02*
X186552350Y-88227783D01*
X186552350Y-88227783D02*
X189423203Y-85356929D01*
X187818071Y-83751797D02*
X184947217Y-86622650D01*
%TO.C,D7*%
X150580385Y-85310517D02*
X153451238Y-88181371D01*
X153451238Y-88181371D02*
X155056371Y-86576238D01*
X155056371Y-86576238D02*
X152185517Y-83705385D01*
%TO.C,D16*%
X165564242Y-93219374D02*
X168435095Y-96090228D01*
X168435095Y-96090228D02*
X170040228Y-94485095D01*
X170040228Y-94485095D02*
X167169374Y-91614242D01*
%TO.C,D1*%
X172221140Y-102558992D02*
X175091994Y-99688139D01*
X173486861Y-98083006D02*
X170616008Y-100953860D01*
X175091994Y-99688139D02*
X173486861Y-98083006D01*
%TO.C,R6*%
X157565000Y-107002064D02*
X157565000Y-105547936D01*
X159385000Y-107002064D02*
X159385000Y-105547936D01*
%TO.C,D22*%
X173696195Y-87008937D02*
X176567049Y-84138084D01*
X174961916Y-82532951D02*
X172091063Y-85403805D01*
X176567049Y-84138084D02*
X174961916Y-82532951D01*
%TO.C,D24*%
X165406130Y-72863737D02*
X167011263Y-74468870D01*
X167011263Y-74468870D02*
X169882116Y-71598016D01*
X168276984Y-69992884D02*
X165406130Y-72863737D01*
%TO.C,R3*%
X175315000Y-107177064D02*
X175315000Y-105722936D01*
X177135000Y-107177064D02*
X177135000Y-105722936D01*
%TO.C,D17*%
X165894374Y-85660758D02*
X168765228Y-82789905D01*
X167160095Y-81184772D02*
X164289242Y-84055626D01*
X168765228Y-82789905D02*
X167160095Y-81184772D01*
%TO.C,D9*%
X179674891Y-95105241D02*
X182545745Y-92234388D01*
X180940612Y-90629255D02*
X178069759Y-93500109D01*
X182545745Y-92234388D02*
X180940612Y-90629255D01*
%TO.C,C2*%
X188950000Y-116226248D02*
X188950000Y-117648752D01*
X190770000Y-116226248D02*
X190770000Y-117648752D01*
%TO.C,D8*%
X157452489Y-85107622D02*
X160323343Y-87978475D01*
X159057622Y-83502489D02*
X157452489Y-85107622D01*
X161928475Y-86373343D02*
X159057622Y-83502489D01*
%TO.C,D11*%
X177491809Y-86903058D02*
X179096942Y-88508191D01*
X179096942Y-88508191D02*
X181967795Y-85637337D01*
X180362663Y-84032205D02*
X177491809Y-86903058D01*
%TO.C,D10*%
X173703290Y-90691577D02*
X175308423Y-92296710D01*
X175308423Y-92296710D02*
X178179276Y-89425856D01*
X176574144Y-87820724D02*
X173703290Y-90691577D01*
%TO.C,D4*%
X161821009Y-96551141D02*
X164691862Y-99421995D01*
X164691862Y-99421995D02*
X166296995Y-97816862D01*
X166296995Y-97816862D02*
X163426141Y-94946009D01*
%TO.C,R5*%
X160015000Y-107077064D02*
X160015000Y-105622936D01*
X161835000Y-107077064D02*
X161835000Y-105622936D01*
%TO.C,D23*%
X169456130Y-71036263D02*
X172326984Y-73907116D01*
X171061263Y-69431130D02*
X169456130Y-71036263D01*
X173932116Y-72301984D02*
X171061263Y-69431130D01*
%TO.C,D5*%
X157497842Y-92227975D02*
X160368696Y-95098828D01*
X159102975Y-90622842D02*
X157497842Y-92227975D01*
X161973828Y-93493696D02*
X159102975Y-90622842D01*
%TO.C,C4*%
X169486248Y-122790000D02*
X170908752Y-122790000D01*
X169486248Y-124610000D02*
X170908752Y-124610000D01*
%TO.C,C1*%
X169461248Y-120115000D02*
X170883752Y-120115000D01*
X169461248Y-121935000D02*
X170883752Y-121935000D01*
%TO.C,D13*%
X172096195Y-95508937D02*
X174967049Y-92638084D01*
X173361916Y-91032951D02*
X170491063Y-93903805D01*
X174967049Y-92638084D02*
X173361916Y-91032951D01*
%TO.C,D12*%
X183401766Y-91378366D02*
X186272620Y-88507513D01*
X184667487Y-86902380D02*
X181796634Y-89773234D01*
X186272620Y-88507513D02*
X184667487Y-86902380D01*
%TO.C,U1*%
X152195000Y-111665000D02*
X152195000Y-116965000D01*
X152195000Y-116965000D02*
X187875000Y-116965000D01*
X187875000Y-111665000D02*
X152195000Y-111665000D01*
X187875000Y-113315000D02*
X187875000Y-111665000D01*
X187875000Y-116965000D02*
X187875000Y-115315001D01*
X187875000Y-115315001D02*
G75*
G02*
X187875000Y-113315001I1J1000000D01*
G01*
%TO.C,D18*%
X165081130Y-86136263D02*
X167951984Y-89007116D01*
X166686263Y-84531130D02*
X165081130Y-86136263D01*
X169557116Y-87401984D02*
X166686263Y-84531130D01*
%TO.C,R7*%
X188900000Y-112602064D02*
X188900000Y-111147936D01*
X190720000Y-112602064D02*
X190720000Y-111147936D01*
%TO.C,D20*%
X167092884Y-78073016D02*
X169963737Y-80943870D01*
X169963737Y-80943870D02*
X171568870Y-79338737D01*
X171568870Y-79338737D02*
X168698016Y-76467884D01*
%TO.C,R1*%
X180515000Y-107077064D02*
X180515000Y-105622936D01*
X182335000Y-107077064D02*
X182335000Y-105622936D01*
%TO.C,D2*%
X175948016Y-98832116D02*
X178818870Y-95961263D01*
X177213737Y-94356130D02*
X174342884Y-97226984D01*
X178818870Y-95961263D02*
X177213737Y-94356130D01*
%TO.C,D3*%
X165567884Y-100298016D02*
X168438737Y-103168870D01*
X168438737Y-103168870D02*
X170043870Y-101563737D01*
X170043870Y-101563737D02*
X167173016Y-98692884D01*
%TO.C,D15*%
X161796512Y-89451644D02*
X164667365Y-92322498D01*
X164667365Y-92322498D02*
X166272498Y-90717365D01*
X166272498Y-90717365D02*
X163401644Y-87846512D01*
%TO.C,D19*%
X163971526Y-74976658D02*
X166842379Y-77847512D01*
X166842379Y-77847512D02*
X168447512Y-76242379D01*
X168447512Y-76242379D02*
X165576658Y-73371526D01*
%TO.C,D14*%
X168257951Y-89261916D02*
X169863084Y-90867049D01*
X169863084Y-90867049D02*
X172733937Y-87996195D01*
X171128805Y-86391063D02*
X168257951Y-89261916D01*
%TO.C,D6*%
X153750967Y-88481100D02*
X156621821Y-91351953D01*
X155356100Y-86875967D02*
X153750967Y-88481100D01*
X158226953Y-89746821D02*
X155356100Y-86875967D01*
%TO.C,D26*%
X171231130Y-76488737D02*
X172836263Y-78093870D01*
X172836263Y-78093870D02*
X175707116Y-75223016D01*
X174101984Y-73617884D02*
X171231130Y-76488737D01*
%TO.C,R2*%
X177840000Y-107127064D02*
X177840000Y-105672936D01*
X179660000Y-107127064D02*
X179660000Y-105672936D01*
%TD*%
M02*
