M48
; DRILL file {KiCad 9.0.4} date 2026-03-04T09:29:11+0100
; FORMAT={-:-/ absolute / metric / decimal}
; #@! TF.CreationDate,2026-03-04T09:29:11+01:00
; #@! TF.GenerationSoftware,Kicad,Pcbnew,9.0.4
; #@! TF.FileFunction,Plated,1,2,PTH
FMAT,2
METRIC
; #@! TA.AperFunction,Plated,PTH,ViaDrill
T1C0.300
; #@! TA.AperFunction,Plated,PTH,ComponentDrill
T2C0.800
; #@! TA.AperFunction,Plated,PTH,ComponentDrill
T3C1.100
%
G90
G05
T1
X151.463Y-84.588
X155.241Y-88.366
X158.475Y-104.725
X158.871Y-84.996
X158.988Y-92.113
X160.925Y-104.8
X161.092Y-94.217
X162.575Y-88.775
X163.425Y-104.85
X164.854Y-74.254
X166.248Y-99.448
X166.271Y-85.721
X166.35Y-92.525
X166.896Y-72.979
X167.275Y-82.675
X167.975Y-77.35
X168.454Y-94.629
X169.0Y-70.875
X169.748Y-89.377
X170.079Y-79.454
X171.4Y-94.65
X171.471Y-80.796
X171.546Y-101.604
X171.852Y-87.273
X172.721Y-76.604
X173.05Y-73.025
X173.65Y-99.5
X174.825Y-74.5
X175.077Y-84.023
X175.196Y-90.779
X176.225Y-104.9
X177.327Y-95.798
X177.338Y-88.638
X178.75Y-104.85
X178.998Y-94.127
X181.075Y-84.9
X181.102Y-92.023
X181.425Y-104.8
X184.802Y-88.323
X186.498Y-86.677
X188.602Y-84.573
X189.81Y-113.425
X189.86Y-118.5
T2
X153.525Y-110.505
X153.525Y-118.125
X156.065Y-110.505
X156.065Y-118.125
X158.605Y-118.125
X158.605Y-110.505
X161.145Y-110.505
X161.145Y-118.125
X163.685Y-110.505
X163.685Y-118.125
X166.225Y-110.505
X166.225Y-118.125
X168.765Y-110.505
X168.765Y-118.125
X171.305Y-110.505
X171.305Y-118.125
X173.845Y-110.505
X173.845Y-118.125
X176.385Y-110.505
X176.385Y-118.125
X178.925Y-110.505
X178.925Y-118.125
X181.465Y-118.125
X181.465Y-110.505
X184.005Y-110.505
X184.005Y-118.125
X186.545Y-110.505
X186.545Y-118.125
T3
X194.35Y-77.95
X194.35Y-90.65
M30
