%TF.GenerationSoftware,KiCad,Pcbnew,9.0.4*%
%TF.CreationDate,2026-03-04T09:29:07+01:00*%
%TF.ProjectId,solvro_logo_led,736f6c76-726f-45f6-9c6f-676f5f6c6564,rev?*%
%TF.SameCoordinates,Original*%
%TF.FileFunction,Copper,L1,Top*%
%TF.FilePolarity,Positive*%
%FSLAX46Y46*%
G04 Gerber Fmt 4.6, Leading zero omitted, Abs format (unit mm)*
G04 Created by KiCad (PCBNEW 9.0.4) date 2026-03-04 09:29:07*
%MOMM*%
%LPD*%
G01*
G04 APERTURE LIST*
G04 Aperture macros list*
%AMRoundRect*
0 Rectangle with rounded corners*
0 $1 Rounding radius*
0 $2 $3 $4 $5 $6 $7 $8 $9 X,Y pos of 4 corners*
0 Add a 4 corners polygon primitive as box body*
4,1,4,$2,$3,$4,$5,$6,$7,$8,$9,$2,$3,0*
0 Add four circle primitives for the rounded corners*
1,1,$1+$1,$2,$3*
1,1,$1+$1,$4,$5*
1,1,$1+$1,$6,$7*
1,1,$1+$1,$8,$9*
0 Add four rect primitives between the rounded corners*
20,1,$1+$1,$2,$3,$4,$5,0*
20,1,$1+$1,$4,$5,$6,$7,0*
20,1,$1+$1,$6,$7,$8,$9,0*
20,1,$1+$1,$8,$9,$2,$3,0*%
G04 Aperture macros list end*
%TA.AperFunction,SMDPad,CuDef*%
%ADD10RoundRect,0.250000X0.625000X-0.400000X0.625000X0.400000X-0.625000X0.400000X-0.625000X-0.400000X0*%
%TD*%
%TA.AperFunction,SMDPad,CuDef*%
%ADD11RoundRect,0.250001X-0.768977X-0.114905X-0.114905X-0.768977X0.768977X0.114905X0.114905X0.768977X0*%
%TD*%
%TA.AperFunction,SMDPad,CuDef*%
%ADD12RoundRect,0.250001X0.114905X-0.768977X0.768977X-0.114905X-0.114905X0.768977X-0.768977X0.114905X0*%
%TD*%
%TA.AperFunction,SMDPad,CuDef*%
%ADD13RoundRect,0.250001X0.768977X0.114905X0.114905X0.768977X-0.768977X-0.114905X-0.114905X-0.768977X0*%
%TD*%
%TA.AperFunction,SMDPad,CuDef*%
%ADD14RoundRect,0.250001X-0.114905X0.768977X-0.768977X0.114905X0.114905X-0.768977X0.768977X-0.114905X0*%
%TD*%
%TA.AperFunction,SMDPad,CuDef*%
%ADD15RoundRect,0.250000X-0.650000X0.412500X-0.650000X-0.412500X0.650000X-0.412500X0.650000X0.412500X0*%
%TD*%
%TA.AperFunction,SMDPad,CuDef*%
%ADD16RoundRect,0.250000X-0.412500X-0.650000X0.412500X-0.650000X0.412500X0.650000X-0.412500X0.650000X0*%
%TD*%
%TA.AperFunction,ComponentPad*%
%ADD17RoundRect,0.250000X-0.550000X0.550000X-0.550000X-0.550000X0.550000X-0.550000X0.550000X0.550000X0*%
%TD*%
%TA.AperFunction,ComponentPad*%
%ADD18C,1.600000*%
%TD*%
%TA.AperFunction,ComponentPad*%
%ADD19RoundRect,0.249999X1.250001X1.250001X-1.250001X1.250001X-1.250001X-1.250001X1.250001X-1.250001X0*%
%TD*%
%TA.AperFunction,ComponentPad*%
%ADD20C,3.000000*%
%TD*%
%TA.AperFunction,ViaPad*%
%ADD21C,0.600000*%
%TD*%
%TA.AperFunction,Conductor*%
%ADD22C,0.200000*%
%TD*%
G04 APERTURE END LIST*
D10*
%TO.P,R4,1*%
%TO.N,D*%
X163425000Y-107950001D03*
%TO.P,R4,2*%
%TO.N,Net-(D13-A)*%
X163425000Y-104849999D03*
%TD*%
D11*
%TO.P,D21,1,K*%
%TO.N,Net-(D1-K)*%
X171471358Y-80796358D03*
%TO.P,D21,2,A*%
%TO.N,Net-(D15-A)*%
X173575000Y-82900000D03*
%TD*%
D12*
%TO.P,D25,1,K*%
%TO.N,Net-(D10-A)*%
X186437445Y-86737555D03*
%TO.P,D25,2,A*%
%TO.N,Net-(D15-A)*%
X188541087Y-84633913D03*
%TD*%
D13*
%TO.P,D7,1,K*%
%TO.N,Net-(D15-A)*%
X153566143Y-86691143D03*
%TO.P,D7,2,A*%
%TO.N,Net-(D17-A)*%
X151462501Y-84587501D03*
%TD*%
%TO.P,D16,1,K*%
%TO.N,Net-(D15-A)*%
X168550000Y-94600000D03*
%TO.P,D16,2,A*%
%TO.N,Net-(D1-A)*%
X166446358Y-92496358D03*
%TD*%
D14*
%TO.P,D1,1,K*%
%TO.N,Net-(D1-K)*%
X173601766Y-99573234D03*
%TO.P,D1,2,A*%
%TO.N,Net-(D1-A)*%
X171498124Y-101676876D03*
%TD*%
D10*
%TO.P,R6,1*%
%TO.N,F*%
X158475000Y-107825001D03*
%TO.P,R6,2*%
%TO.N,Net-(D17-A)*%
X158475000Y-104724999D03*
%TD*%
D14*
%TO.P,D22,1,K*%
%TO.N,Net-(D15-A)*%
X175076821Y-84023179D03*
%TO.P,D22,2,A*%
%TO.N,Net-(D1-K)*%
X172973179Y-86126821D03*
%TD*%
D12*
%TO.P,D24,1,K*%
%TO.N,Net-(D17-A)*%
X166896358Y-72978642D03*
%TO.P,D24,2,A*%
%TO.N,Net-(D1-A)*%
X169000000Y-70875000D03*
%TD*%
D10*
%TO.P,R3,1*%
%TO.N,C*%
X176225000Y-108000001D03*
%TO.P,R3,2*%
%TO.N,Net-(D1-A)*%
X176225000Y-104899999D03*
%TD*%
D14*
%TO.P,D17,1,K*%
%TO.N,Net-(D13-A)*%
X167275000Y-82675000D03*
%TO.P,D17,2,A*%
%TO.N,Net-(D17-A)*%
X165171358Y-84778642D03*
%TD*%
%TO.P,D9,1,K*%
%TO.N,Net-(D10-A)*%
X181055517Y-92119483D03*
%TO.P,D9,2,A*%
%TO.N,Net-(D1-K)*%
X178951875Y-94223125D03*
%TD*%
D15*
%TO.P,C2,1*%
%TO.N,Net-(BT1-+)*%
X189860000Y-115375000D03*
%TO.P,C2,2*%
%TO.N,Net-(BT1--)*%
X189860000Y-118500000D03*
%TD*%
D11*
%TO.P,D8,1,K*%
%TO.N,Net-(D17-A)*%
X158942717Y-84992717D03*
%TO.P,D8,2,A*%
%TO.N,Net-(D15-A)*%
X161046359Y-87096359D03*
%TD*%
D12*
%TO.P,D11,1,K*%
%TO.N,Net-(D10-A)*%
X178982037Y-87017963D03*
%TO.P,D11,2,A*%
%TO.N,Net-(D1-A)*%
X181085679Y-84914321D03*
%TD*%
%TO.P,D10,1,K*%
%TO.N,Net-(D1-K)*%
X175193518Y-90806482D03*
%TO.P,D10,2,A*%
%TO.N,Net-(D10-A)*%
X177297160Y-88702840D03*
%TD*%
D13*
%TO.P,D4,1,K*%
%TO.N,Net-(D13-A)*%
X164806767Y-97931767D03*
%TO.P,D4,2,A*%
%TO.N,Net-(D1-A)*%
X162703125Y-95828125D03*
%TD*%
D10*
%TO.P,R5,1*%
%TO.N,E*%
X160925000Y-107900001D03*
%TO.P,R5,2*%
%TO.N,Net-(D15-A)*%
X160925000Y-104799999D03*
%TD*%
D11*
%TO.P,D23,1,K*%
%TO.N,Net-(D1-A)*%
X170946358Y-70921358D03*
%TO.P,D23,2,A*%
%TO.N,Net-(D17-A)*%
X173050000Y-73025000D03*
%TD*%
%TO.P,D5,1,K*%
%TO.N,Net-(D13-A)*%
X158988070Y-92113070D03*
%TO.P,D5,2,A*%
%TO.N,Net-(D15-A)*%
X161091712Y-94216712D03*
%TD*%
D16*
%TO.P,C4,1*%
%TO.N,Net-(BT1-+)*%
X168635000Y-123700000D03*
%TO.P,C4,2*%
%TO.N,Net-(BT1--)*%
X171760000Y-123700000D03*
%TD*%
%TO.P,C1,1*%
%TO.N,Net-(U1-AREF)*%
X168610000Y-121025000D03*
%TO.P,C1,2*%
%TO.N,Net-(BT1--)*%
X171735000Y-121025000D03*
%TD*%
D14*
%TO.P,D13,1,K*%
%TO.N,Net-(D1-K)*%
X173476821Y-92523179D03*
%TO.P,D13,2,A*%
%TO.N,Net-(D13-A)*%
X171373179Y-94626821D03*
%TD*%
%TO.P,D12,1,K*%
%TO.N,Net-(D1-A)*%
X184782392Y-88392608D03*
%TO.P,D12,2,A*%
%TO.N,Net-(D10-A)*%
X182678750Y-90496250D03*
%TD*%
D17*
%TO.P,U1,1,~{RESET}/PC6*%
%TO.N,Net-(U1-~{RESET}{slash}PC6)*%
X186545000Y-110505000D03*
D18*
%TO.P,U1,2,PD0*%
%TO.N,unconnected-(U1-PD0-Pad2)*%
X184005000Y-110505000D03*
%TO.P,U1,3,PD1*%
%TO.N,unconnected-(U1-PD1-Pad3)*%
X181465001Y-110505000D03*
%TO.P,U1,4,PD2*%
%TO.N,A*%
X178925000Y-110505000D03*
%TO.P,U1,5,PD3*%
%TO.N,B*%
X176385000Y-110505000D03*
%TO.P,U1,6,PD4*%
%TO.N,C*%
X173845000Y-110505000D03*
%TO.P,U1,7,VCC*%
%TO.N,Net-(BT1-+)*%
X171305000Y-110505000D03*
%TO.P,U1,8,GND*%
%TO.N,Net-(BT1--)*%
X168764999Y-110505000D03*
%TO.P,U1,9,XTAL1/PB6*%
%TO.N,unconnected-(U1-XTAL1{slash}PB6-Pad9)*%
X166225000Y-110505000D03*
%TO.P,U1,10,XTAL2/PB7*%
%TO.N,unconnected-(U1-XTAL2{slash}PB7-Pad10)*%
X163685000Y-110505000D03*
%TO.P,U1,11,PD5*%
%TO.N,D*%
X161145000Y-110505000D03*
%TO.P,U1,12,PD6*%
%TO.N,E*%
X158605001Y-110505000D03*
%TO.P,U1,13,PD7*%
%TO.N,F*%
X156065000Y-110505000D03*
%TO.P,U1,14,PB0*%
%TO.N,unconnected-(U1-PB0-Pad14)*%
X153525000Y-110505000D03*
%TO.P,U1,15,PB1*%
%TO.N,unconnected-(U1-PB1-Pad15)*%
X153525000Y-118125000D03*
%TO.P,U1,16,PB2*%
%TO.N,unconnected-(U1-PB2-Pad16)*%
X156065000Y-118125000D03*
%TO.P,U1,17,PB3*%
%TO.N,unconnected-(U1-PB3-Pad17)*%
X158605000Y-118125000D03*
%TO.P,U1,18,PB4*%
%TO.N,unconnected-(U1-PB4-Pad18)*%
X161145000Y-118125000D03*
%TO.P,U1,19,PB5*%
%TO.N,unconnected-(U1-PB5-Pad19)*%
X163685000Y-118125000D03*
%TO.P,U1,20,AVCC*%
%TO.N,Net-(BT1-+)*%
X166225000Y-118125000D03*
%TO.P,U1,21,AREF*%
%TO.N,Net-(U1-AREF)*%
X168765000Y-118125000D03*
%TO.P,U1,22,GND*%
%TO.N,Net-(BT1--)*%
X171305000Y-118125000D03*
%TO.P,U1,23,PC0*%
%TO.N,unconnected-(U1-PC0-Pad23)*%
X173845000Y-118125000D03*
%TO.P,U1,24,PC1*%
%TO.N,unconnected-(U1-PC1-Pad24)*%
X176385000Y-118125000D03*
%TO.P,U1,25,PC2*%
%TO.N,unconnected-(U1-PC2-Pad25)*%
X178925000Y-118125000D03*
%TO.P,U1,26,PC3*%
%TO.N,unconnected-(U1-PC3-Pad26)*%
X181465000Y-118125000D03*
%TO.P,U1,27,PC4*%
%TO.N,unconnected-(U1-PC4-Pad27)*%
X184005000Y-118125000D03*
%TO.P,U1,28,PC5*%
%TO.N,unconnected-(U1-PC5-Pad28)*%
X186545000Y-118125000D03*
%TD*%
D11*
%TO.P,D18,1,K*%
%TO.N,Net-(D17-A)*%
X166571358Y-86021358D03*
%TO.P,D18,2,A*%
%TO.N,Net-(D13-A)*%
X168675000Y-88125000D03*
%TD*%
D10*
%TO.P,R7,1*%
%TO.N,Net-(BT1-+)*%
X189810000Y-113425001D03*
%TO.P,R7,2*%
%TO.N,Net-(U1-~{RESET}{slash}PC6)*%
X189810000Y-110324999D03*
%TD*%
D13*
%TO.P,D20,1,K*%
%TO.N,Net-(D13-A)*%
X170078642Y-79453642D03*
%TO.P,D20,2,A*%
%TO.N,Net-(D10-A)*%
X167975000Y-77350000D03*
%TD*%
D10*
%TO.P,R1,1*%
%TO.N,A*%
X181425000Y-107900001D03*
%TO.P,R1,2*%
%TO.N,Net-(D10-A)*%
X181425000Y-104799999D03*
%TD*%
D14*
%TO.P,D2,1,K*%
%TO.N,Net-(D1-A)*%
X177328642Y-95846358D03*
%TO.P,D2,2,A*%
%TO.N,Net-(D1-K)*%
X175225000Y-97950000D03*
%TD*%
D13*
%TO.P,D3,1,K*%
%TO.N,Net-(D1-A)*%
X168553642Y-101678642D03*
%TO.P,D3,2,A*%
%TO.N,Net-(D13-A)*%
X166450000Y-99575000D03*
%TD*%
%TO.P,D15,1,K*%
%TO.N,Net-(D1-A)*%
X164782270Y-90832270D03*
%TO.P,D15,2,A*%
%TO.N,Net-(D15-A)*%
X162678628Y-88728628D03*
%TD*%
%TO.P,D19,1,K*%
%TO.N,Net-(D10-A)*%
X166957284Y-76357284D03*
%TO.P,D19,2,A*%
%TO.N,Net-(D13-A)*%
X164853642Y-74253642D03*
%TD*%
D12*
%TO.P,D14,1,K*%
%TO.N,Net-(D13-A)*%
X169748179Y-89376821D03*
%TO.P,D14,2,A*%
%TO.N,Net-(D1-K)*%
X171851821Y-87273179D03*
%TD*%
D11*
%TO.P,D6,1,K*%
%TO.N,Net-(D15-A)*%
X155241195Y-88366195D03*
%TO.P,D6,2,A*%
%TO.N,Net-(D13-A)*%
X157344837Y-90469837D03*
%TD*%
D12*
%TO.P,D26,1,K*%
%TO.N,Net-(D15-A)*%
X172721358Y-76603642D03*
%TO.P,D26,2,A*%
%TO.N,Net-(D10-A)*%
X174825000Y-74500000D03*
%TD*%
D10*
%TO.P,R2,1*%
%TO.N,B*%
X178750000Y-107950001D03*
%TO.P,R2,2*%
%TO.N,Net-(D1-K)*%
X178750000Y-104849999D03*
%TD*%
D19*
%TO.P,BT1,1,+*%
%TO.N,Net-(BT1-+)*%
X194350000Y-77950000D03*
D20*
%TO.P,BT1,2,-*%
%TO.N,Net-(BT1--)*%
X194350000Y-90650000D03*
%TD*%
D21*
%TO.N,Net-(BT1-+)*%
X189810000Y-113425001D03*
%TO.N,Net-(BT1--)*%
X189860000Y-118500000D03*
%TO.N,Net-(D1-K)*%
X178998179Y-94126821D03*
X173650000Y-99500000D03*
X171851821Y-87273179D03*
X171471358Y-80796358D03*
X175196358Y-90778642D03*
X178750000Y-104849999D03*
%TO.N,Net-(D1-A)*%
X184801821Y-88323179D03*
X176225000Y-104899999D03*
X171546358Y-101603642D03*
X169000000Y-70875000D03*
X181075000Y-84900000D03*
X166350000Y-92525000D03*
X177326821Y-95798179D03*
%TO.N,Net-(D13-A)*%
X163425000Y-104849999D03*
X164853642Y-74253642D03*
X170078642Y-79453642D03*
X169748179Y-89376821D03*
X166248179Y-99448179D03*
X171400000Y-94650000D03*
X158988070Y-92113070D03*
X167275000Y-82675000D03*
%TO.N,Net-(D15-A)*%
X161091712Y-94216712D03*
X155241195Y-88366195D03*
X175076821Y-84023179D03*
X172721358Y-76603642D03*
X168453642Y-94628642D03*
X160925000Y-104799999D03*
X162575000Y-88775000D03*
X188601821Y-84573179D03*
%TO.N,Net-(D17-A)*%
X166271358Y-85721358D03*
X173050000Y-73025000D03*
X151462501Y-84587501D03*
X166896358Y-72978642D03*
X158871358Y-84996358D03*
X158475000Y-104724999D03*
%TO.N,Net-(D10-A)*%
X181425000Y-104799999D03*
X177337500Y-88637500D03*
X174825000Y-74500000D03*
X167975000Y-77350000D03*
X181101821Y-92023179D03*
X186498179Y-86676821D03*
%TD*%
D22*
%TO.N,Net-(BT1-+)*%
X189860000Y-115375000D02*
X189860000Y-113475001D01*
X189860000Y-113475001D02*
X189810000Y-113425001D01*
X174225001Y-113425001D02*
X171305000Y-110505000D01*
X168635000Y-123700000D02*
X166225000Y-121290000D01*
X189810000Y-113425001D02*
X174225001Y-113425001D01*
X166225000Y-121290000D02*
X166225000Y-118125000D01*
%TO.N,Net-(BT1--)*%
X171735000Y-121025000D02*
X171735000Y-118555000D01*
X171760000Y-121050000D02*
X171735000Y-121025000D01*
X171305000Y-118125000D02*
X171305000Y-113045001D01*
X189860000Y-118500000D02*
X187335000Y-121025000D01*
X171760000Y-123700000D02*
X171760000Y-121050000D01*
X171305000Y-113045001D02*
X168764999Y-110505000D01*
X171735000Y-118555000D02*
X171305000Y-118125000D01*
X187335000Y-121025000D02*
X171735000Y-121025000D01*
%TO.N,Net-(U1-AREF)*%
X168610000Y-118280000D02*
X168765000Y-118125000D01*
X168610000Y-121025000D02*
X168610000Y-118280000D01*
%TO.N,Net-(D1-K)*%
X175196358Y-90853642D02*
X175196358Y-90778642D01*
X173650000Y-99500000D02*
X175223179Y-97926821D01*
X173503642Y-92546358D02*
X175196358Y-90853642D01*
X171851821Y-87248179D02*
X172973179Y-86126821D01*
X175223179Y-97926821D02*
X175223179Y-97901821D01*
X171851821Y-87273179D02*
X171851821Y-87248179D01*
%TO.N,Net-(D1-A)*%
X166890528Y-101678642D02*
X168553642Y-101678642D01*
X168378642Y-101603642D02*
X168351821Y-101576821D01*
X166350000Y-92525000D02*
X164703642Y-90878642D01*
X164703642Y-90878642D02*
X164678642Y-90878642D01*
X163276821Y-95598179D02*
X162398179Y-95598179D01*
X162703125Y-97491239D02*
X166890528Y-101678642D01*
X171546358Y-101603642D02*
X168378642Y-101603642D01*
X162703125Y-95828125D02*
X162703125Y-97491239D01*
%TO.N,Net-(D13-A)*%
X169748179Y-89376821D02*
X168650000Y-88278642D01*
X168650000Y-88278642D02*
X168650000Y-87650000D01*
X169748179Y-89376821D02*
X169748179Y-89498179D01*
X166248179Y-99448179D02*
X166248179Y-99473179D01*
X166576821Y-99473179D02*
X166248179Y-99473179D01*
X164501821Y-97701821D02*
X166248179Y-99448179D01*
X158913070Y-92113070D02*
X157126821Y-90326821D01*
X158988070Y-92113070D02*
X158913070Y-92113070D01*
X157126821Y-90326821D02*
X157126821Y-90301821D01*
%TO.N,Net-(D15-A)*%
X168453642Y-92965528D02*
X164263114Y-88775000D01*
X155191195Y-88366195D02*
X153401821Y-86576821D01*
X175076821Y-84023179D02*
X174698179Y-84023179D01*
X153401821Y-86576821D02*
X153376821Y-86576821D01*
X168453642Y-94628642D02*
X168453642Y-92965528D01*
X155241195Y-88366195D02*
X155191195Y-88366195D01*
X162575000Y-88775000D02*
X160975000Y-87175000D01*
X174698179Y-84023179D02*
X173575000Y-82900000D01*
X160975000Y-87175000D02*
X160975000Y-87100000D01*
X164263114Y-88775000D02*
X162575000Y-88775000D01*
%TO.N,Net-(D17-A)*%
X166271358Y-85271358D02*
X165325000Y-84325000D01*
X165325000Y-84325000D02*
X165000000Y-84325000D01*
X166271358Y-85721358D02*
X166271358Y-85271358D01*
%TO.N,Net-(D10-A)*%
X167975000Y-77350000D02*
X167950000Y-77350000D01*
X167950000Y-77350000D02*
X166957284Y-76357284D01*
X177337500Y-88637500D02*
X178971358Y-87003642D01*
X181101821Y-92023179D02*
X182698179Y-90426821D01*
X177300000Y-88675000D02*
X177337500Y-88637500D01*
%TO.N,A*%
X181425000Y-107900001D02*
X181425000Y-108005000D01*
X181425000Y-108005000D02*
X178925000Y-110505000D01*
%TO.N,B*%
X178750000Y-108140000D02*
X176385000Y-110505000D01*
X178750000Y-107950001D02*
X178750000Y-108140000D01*
%TO.N,C*%
X176225000Y-108000001D02*
X176225000Y-108125000D01*
X176225000Y-108125000D02*
X173845000Y-110505000D01*
%TO.N,D*%
X163425000Y-107950001D02*
X163425000Y-108225000D01*
X163425000Y-108225000D02*
X161145000Y-110505000D01*
%TO.N,E*%
X160925000Y-107900001D02*
X160925000Y-108185001D01*
X160925000Y-108185001D02*
X158605001Y-110505000D01*
%TO.N,F*%
X158475000Y-108095000D02*
X156065000Y-110505000D01*
X158475000Y-107825001D02*
X158475000Y-108095000D01*
%TO.N,Net-(U1-~{RESET}{slash}PC6)*%
X189810000Y-110324999D02*
X186725001Y-110324999D01*
X186725001Y-110324999D02*
X186545000Y-110505000D01*
%TD*%
M02*
